<?xml version="1.0" encoding="UTF-8" standalone="no"?>
<!DOCTYPE svg PUBLIC "-//W3C//DTD SVG 1.1//EN" "http://www.w3.org/Graphics/SVG/1.1/DTD/svg11.dtd">
<svg xmlns="http://www.w3.org/2000/svg" version="1.1" viewBox="0.00 0.00 397.00 397.00">
<g stroke-width="5.00" fill="none" stroke-linecap="butt">
<path stroke="#ebba4d" vector-effect="non-scaling-stroke" d="
  M 114.73 102.34
  C 115.44 105.49 112.45 105.50 111.23 107.28
  Q 109.36 110.03 109.75 114.24"
/>
<path stroke="#e6ab3d" vector-effect="non-scaling-stroke" d="
  M 170.16 104.23
  L 170.63 105.95
  Q 170.77 106.46 170.39 106.82
  C 169.10 108.03 168.15 108.36 167.56 110.16
  Q 167.41 110.64 167.03 110.97
  Q 165.79 112.08 165.01 113.57
  Q 164.75 114.07 164.20 114.23
  L 162.60 114.71"
/>
<path stroke="#f5cf54" vector-effect="non-scaling-stroke" d="
  M 161.61 113.33
  C 162.60 111.88 164.10 110.68 164.81 109.32
  Q 166.44 106.18 165.51 103.56"
/>
<path stroke="#f5cf54" vector-effect="non-scaling-stroke" d="
  M 159.83 128.41
  Q 161.08 130.75 157.23 129.08
  Q 156.75 128.87 156.25 129.01
  Q 155.05 129.36 154.09 128.52
  Q 153.74 128.20 153.27 128.22
  L 148.14 128.35
  Q 147.70 128.36 147.53 128.76
  Q 147.27 129.39 146.65 129.59
  Q 146.24 129.72 146.16 130.15
  Q 146.08 130.60 145.71 130.92
  Q 144.97 131.54 145.18 132.12
  A 0.35 0.32 -42.1 0 1 145.15 132.42
  Q 143.44 135.45 142.98 138.80
  C 142.27 144.04 138.32 147.29 135.88 151.13
  Q 134.26 153.66 132.51 155.14
  Q 132.14 155.45 132.16 155.94
  C 132.32 160.66 129.95 162.41 127.24 165.62
  Q 126.92 166.01 126.86 166.51
  Q 126.60 168.61 125.69 170.50
  A 1.33 1.30 50.6 0 0 125.61 171.44
  Q 126.15 173.38 125.23 175.14
  Q 125.01 175.54 124.96 175.99
  L 124.27 181.96
  Q 124.21 182.51 124.66 182.82
  C 128.42 185.39 131.97 184.51 136.01 184.36
  Q 136.30 184.35 136.41 184.62
  Q 136.50 184.81 136.73 184.87
  Q 136.96 184.94 137.27 184.76
  Q 139.18 183.64 141.11 182.56
  Q 141.46 182.36 141.72 182.66
  Q 142.44 183.50 143.73 182.99
  Q 144.48 182.70 145.26 182.41
  C 147.26 181.69 150.02 177.94 151.32 176.21
  Q 151.41 176.09 151.50 175.71
  Q 151.62 175.23 151.94 174.85
  C 153.41 173.12 154.03 171.02 155.42 169.37
  Q 155.75 168.99 155.79 168.50
  Q 156.04 165.91 157.94 164.11
  Q 158.05 164.02 158.08 163.91
  Q 158.12 163.73 158.08 163.60
  Q 157.99 163.36 158.13 163.14
  Q 158.96 161.78 159.03 160.22
  A 1.15 1.12 -31.7 0 1 159.14 159.78
  Q 159.94 158.13 158.42 157.30
  A 0.57 0.55 -74.0 0 1 158.13 156.76
  Q 158.18 156.16 157.67 156.12
  Q 157.29 156.09 157.05 155.79
  C 154.25 152.31 152.24 148.96 155.18 145.48
  Q 155.51 145.09 156.01 144.99
  Q 160.51 144.09 163.30 147.48
  C 163.84 148.14 164.50 147.96 165.01 148.77
  Q 166.07 150.45 166.62 152.43
  A 0.89 0.88 -1.1 0 0 167.27 153.05
  Q 168.82 153.39 170.49 152.06"
/>
<path stroke="#f4e7aa" vector-effect="non-scaling-stroke" d="
  M 170.49 152.06
  C 168.02 154.96 165.36 157.48 163.56 160.88
  C 156.58 174.09 149.63 185.68 136.85 192.75
  C 130.40 196.32 120.05 199.19 113.73 202.20
  Q 107.71 205.06 101.11 211.49"
/>
<path stroke="#e8e9e9" vector-effect="non-scaling-stroke" d="
  M 215.94 139.20
  Q 217.04 139.74 217.08 140.51
  Q 217.09 140.63 217.16 140.71
  Q 217.28 140.84 217.44 140.85
  Q 218.23 140.89 217.76 141.25
  Q 217.59 141.38 217.39 141.38
  Q 216.92 141.38 216.81 141.83
  C 215.97 145.27 215.53 147.63 213.82 149.61
  Q 213.50 149.98 213.44 150.46
  C 213.25 152.24 212.19 153.55 211.82 155.01
  Q 211.16 157.59 210.82 160.25
  Q 210.78 160.61 210.92 160.92
  Q 211.10 161.30 210.98 161.71
  L 209.99 165.23
  Q 209.97 165.28 209.93 165.31
  Q 209.82 165.37 209.66 165.38
  Q 209.60 165.38 209.61 165.44
  Q 209.79 166.20 209.45 166.70
  Q 209.33 166.86 209.26 167.03
  Q 208.17 169.56 207.62 172.27
  Q 207.50 172.87 206.91 173.06
  Q 206.14 173.31 206.47 174.02
  A 1.13 1.00 -61.4 0 1 206.58 174.50
  C 206.53 177.77 206.00 182.21 203.39 184.04
  Q 202.84 184.44 203.23 184.99
  Q 203.50 185.38 203.32 185.90
  Q 203.25 186.12 203.02 186.12
  Q 202.88 186.12 202.74 186.11
  A 0.46 0.46 0.0 0 0 202.38 186.89
  L 202.64 187.15
  Q 202.95 187.45 202.63 187.75
  Q 201.33 188.93 201.46 190.75
  A 3.00 2.96 -27.4 0 1 200.78 192.85
  L 197.27 197.13
  Q 196.97 197.50 197.14 197.94
  Q 197.56 199.07 196.88 200.39
  Q 196.39 201.35 195.47 201.11
  A 0.28 0.27 -82.2 0 0 195.12 201.38
  L 195.12 201.72
  Q 195.12 202.27 194.67 202.60
  C 192.81 203.99 191.27 206.03 188.91 206.39
  Q 188.48 206.45 188.21 206.80
  Q 187.28 208.01 185.99 208.77
  C 184.16 209.86 182.99 210.98 180.50 211.60
  Q 171.77 213.78 165.50 214.06
  Q 165.28 214.07 165.19 213.91
  Q 165.08 213.72 164.86 213.67
  C 159.97 212.69 151.78 212.95 147.67 216.20
  C 146.61 217.05 145.27 217.49 144.35 218.23
  Q 139.99 221.78 138.39 224.66
  Q 137.07 227.04 136.06 228.37
  C 134.78 230.05 134.15 231.67 133.04 233.28
  Q 132.87 233.53 132.56 233.58
  Q 132.14 233.65 131.89 234.00
  Q 124.01 245.21 116.96 256.98
  C 115.92 258.71 114.17 260.41 113.03 262.31
  Q 111.39 265.02 109.50 267.55
  C 108.86 268.40 108.54 269.58 107.71 270.45
  C 106.09 272.15 105.01 273.75 103.44 275.22
  C 101.93 276.64 99.60 276.83 97.84 278.33
  Q 97.51 278.62 97.08 278.71
  Q 95.30 279.07 93.85 280.14
  Q 93.46 280.43 92.98 280.39
  L 91.62 280.29"
/>
<path stroke="#efd89a" vector-effect="non-scaling-stroke" d="
  M 180.82 144.50
  Q 179.67 145.26 178.39 145.99
  Q 174.00 148.50 170.49 152.06"
/>
<path stroke="#d9dad9" vector-effect="non-scaling-stroke" d="
  M 325.02 214.46
  Q 324.73 215.02 325.13 215.71
  Q 325.31 216.01 325.02 216.20
  Q 324.12 216.79 322.96 216.73
  A 0.86 0.85 -76.4 0 0 322.12 217.25
  Q 321.80 218.04 321.01 218.16
  Q 320.48 218.23 320.42 218.77
  Q 320.27 220.21 318.82 220.14
  Q 318.31 220.11 317.95 220.47
  Q 316.34 222.05 314.37 223.14
  Q 313.96 223.37 313.67 223.73
  C 313.02 224.53 311.76 224.81 311.05 225.38
  C 309.36 226.72 307.88 228.46 306.15 229.66
  Q 305.11 230.40 304.07 231.14
  Q 304.00 231.18 304.00 231.26
  Q 304.00 231.42 304.00 231.58
  Q 304.00 231.72 303.90 231.81
  Q 301.63 233.60 299.86 235.85
  C 298.76 237.25 297.41 238.05 296.12 239.20
  C 293.12 241.91 290.17 244.02 287.68 247.30
  Q 287.39 247.69 286.94 247.88
  Q 286.03 248.27 285.44 249.08
  Q 285.17 249.45 285.17 249.91
  Q 285.18 250.26 284.98 250.53
  Q 284.68 250.95 284.15 250.89
  Q 283.74 250.83 283.45 250.50
  Q 283.14 250.14 282.65 250.11
  Q 282.17 250.08 281.67 250.25"
/>
<path stroke="#89bfd5" vector-effect="non-scaling-stroke" d="
  M 281.67 250.25
  L 280.71 250.10"
/>
<path stroke="#719ece" vector-effect="non-scaling-stroke" d="
  M 280.71 250.10
  C 277.08 248.58 273.34 250.28 270.42 252.73"
/>
<path stroke="#92d2e6" vector-effect="non-scaling-stroke" d="
  M 270.42 252.73
  L 243.88 280.21"
/>
<path stroke="#d9dad9" vector-effect="non-scaling-stroke" d="
  M 243.88 280.21
  Q 244.88 278.69 244.95 277.10
  Q 244.97 276.72 245.33 276.60
  Q 245.61 276.51 245.63 276.07
  A 0.41 0.40 -8.6 0 0 245.08 275.67
  Q 239.79 277.64 234.00 276.59
  Q 232.72 276.36 230.46 277.31
  Q 229.99 277.51 229.52 277.31
  Q 228.67 276.95 228.04 276.32
  Q 227.60 275.86 227.26 276.40
  Q 226.59 277.47 225.64 277.18"
/>
<path stroke="#92d2e6" vector-effect="non-scaling-stroke" d="
  M 225.64 277.18
  Q 230.18 272.60 233.97 267.48
  C 240.01 259.32 227.81 246.86 219.82 251.49
  Q 218.65 252.17 213.49 257.37
  Q 202.95 268.00 192.71 278.93"
/>
<path stroke="#d9dad9" vector-effect="non-scaling-stroke" d="
  M 192.71 278.93
  Q 191.14 279.21 190.70 280.12
  Q 190.52 280.48 190.24 280.19
  Q 188.90 278.84 187.04 279.00
  C 185.44 279.13 184.22 278.44 182.52 278.70
  Q 180.50 279.01 178.43 279.03
  Q 177.93 279.04 177.65 278.64
  L 176.16 276.58"
/>
<path stroke="#92d2e6" vector-effect="non-scaling-stroke" d="
  M 176.16 276.58
  Q 176.22 270.94 175.71 269.51
  Q 173.52 263.23 165.74 261.42
  Q 161.41 260.42 157.69 264.20
  Q 142.71 279.42 127.94 294.85
  C 124.57 298.38 122.23 299.20 121.73 304.75"
/>
<path stroke="#cacbca" vector-effect="non-scaling-stroke" d="
  M 336.58 243.52
  L 336.35 250.32
  Q 336.33 250.80 335.85 250.85
  Q 335.40 250.89 335.35 250.38
  Q 335.31 250.02 335.08 249.74
  L 333.00 247.09
  Q 332.71 246.71 332.27 246.51
  Q 331.53 246.15 331.05 245.37
  A 0.10 0.10 0.0 0 0 330.87 245.43
  L 330.87 245.73
  A 0.34 0.33 -67.6 0 1 330.30 245.97
  L 328.85 244.49
  Q 328.43 244.07 327.84 244.14
  Q 327.29 244.20 327.04 243.75
  A 0.62 0.40 -77.8 0 1 326.98 243.59
  Q 326.87 243.19 326.88 242.81
  Q 326.90 242.30 326.39 242.26
  Q 325.08 242.18 324.44 241.14
  Q 324.15 240.66 323.63 240.88
  Q 322.40 241.40 321.27 240.73
  Q 320.82 240.47 320.31 240.53
  Q 314.94 241.21 313.50 241.63
  Q 310.83 242.43 303.91 245.98
  Q 303.52 246.18 303.43 246.61
  L 303.37 246.90
  Q 303.31 247.15 303.13 247.31
  L 298.41 251.50
  Q 298.12 251.75 297.74 251.71
  Q 297.27 251.66 296.82 252.08
  Q 294.77 254.04 292.47 255.70
  Q 291.24 256.59 290.88 257.97
  Q 290.76 258.42 290.31 258.33
  Q 289.25 258.12 288.58 257.60"
/>
<path stroke="#89c9dc" vector-effect="non-scaling-stroke" d="
  M 288.58 257.60
  L 287.44 255.29"
/>
<path stroke="#80b6cb" vector-effect="non-scaling-stroke" d="
  M 287.44 255.29
  Q 286.24 252.78 284.00 251.65
  Q 282.23 250.76 281.67 250.25"
/>
<path stroke="#89c9dc" vector-effect="non-scaling-stroke" d="
  M 176.16 276.58
  L 172.87 281.08
  A 1.44 1.43 -83.4 0 1 172.32 281.52
  C 171.32 281.98 170.95 283.04 170.35 283.61
  C 163.64 289.91 158.37 296.66 151.23 303.37
  Q 151.12 303.48 151.07 303.63
  Q 151.04 303.75 150.99 303.87
  Q 150.93 304.04 150.77 304.19
  Q 148.12 306.70 145.44 309.33"
/>
<path stroke="#92d2e6" vector-effect="non-scaling-stroke" d="
  M 271.30 253.34
  L 244.96 281.44"
/>
<path stroke="#218cd1" vector-effect="non-scaling-stroke" d="
  M 244.96 281.44
  Q 244.57 281.18 243.62 281.17"
/>
<path stroke="#89c9dc" vector-effect="non-scaling-stroke" d="
  M 243.62 281.17
  L 243.88 280.21"
/>
<path stroke="#89c9dc" vector-effect="non-scaling-stroke" d="
  M 225.64 277.18
  Q 223.32 279.20 221.46 281.72
  Q 221.23 282.04 220.89 282.20
  Q 220.53 282.38 220.26 282.68
  Q 211.26 292.60 207.96 295.20
  C 204.54 297.89 199.85 296.98 196.56 294.77"
/>
<path stroke="#39add8" vector-effect="non-scaling-stroke" d="
  M 196.56 294.77
  Q 199.49 295.46 202.60 295.46
  C 205.39 295.46 207.24 293.78 208.89 291.78
  Q 209.77 290.73 210.71 290.05
  C 213.36 288.14 215.27 284.31 217.37 281.73
  Q 217.67 281.36 217.82 280.92
  Q 218.17 279.92 219.22 278.86
  Q 221.77 276.30 223.31 272.56"
/>
<path stroke="#218cd1" vector-effect="non-scaling-stroke" d="
  M 223.31 272.56
  L 230.98 263.48
  Q 231.31 263.09 231.33 262.59
  Q 231.43 260.01 231.09 258.50
  Q 230.77 257.08 229.00 257.40"
/>
<path stroke="#92d2e6" vector-effect="non-scaling-stroke" d="
  M 229.00 257.40
  Q 229.22 257.14 229.34 256.80
  Q 229.48 256.37 229.18 256.02
  Q 228.16 254.85 227.54 255.02"
/>
<path stroke="#218cd1" vector-effect="non-scaling-stroke" d="
  M 227.54 255.02
  Q 225.20 254.25 223.17 255.22
  Q 222.49 255.55 223.09 256.01
  L 223.91 256.64
  Q 224.32 256.95 224.17 257.45
  Q 223.64 259.19 221.87 259.84
  Q 221.42 260.00 221.07 260.33
  L 211.74 269.39"
/>
<path stroke="#43d5f3" vector-effect="non-scaling-stroke" d="
  M 211.74 269.39
  Q 215.21 264.72 221.87 258.00
  Q 222.81 257.05 222.12 256.08"
/>
<path stroke="#92d2e6" vector-effect="non-scaling-stroke" d="
  M 222.12 256.08
  Q 221.55 254.80 220.11 254.11
  A 1.92 1.91 -55.0 0 0 217.89 254.51
  L 193.58 280.03"
/>
<path stroke="#39add8" vector-effect="non-scaling-stroke" d="
  M 193.58 280.03
  Q 192.96 279.50 192.22 279.66"
/>
<path stroke="#89c9dc" vector-effect="non-scaling-stroke" d="
  M 192.22 279.66
  Q 192.67 279.35 192.71 278.93"
/>
<path stroke="#1879c0" vector-effect="non-scaling-stroke" d="
  M 280.71 250.10
  Q 280.95 250.28 280.94 250.52
  Q 280.93 251.07 280.38 251.06
  Q 277.14 250.97 274.74 253.15
  Q 274.48 253.37 274.14 253.36
  Q 273.87 253.35 273.67 253.53"
/>
<path stroke="#719ece" vector-effect="non-scaling-stroke" d="
  M 273.67 253.53
  Q 271.94 252.53 271.30 253.34"
/>
<path stroke="#218cd1" vector-effect="non-scaling-stroke" d="
  M 271.30 253.34
  Q 270.49 253.28 270.42 252.73"
/>
<path stroke="#39add8" vector-effect="non-scaling-stroke" d="
  M 287.44 255.29
  Q 286.32 260.82 284.08 264.30"
/>
<path stroke="#1870b2" vector-effect="non-scaling-stroke" d="
  M 284.08 264.30
  C 284.94 262.35 286.49 256.22 283.03 255.78"
/>
<path stroke="#89bfd5" vector-effect="non-scaling-stroke" d="
  M 283.03 255.78
  Q 282.60 253.60 280.97 254.30"
/>
<path stroke="#1879c0" vector-effect="non-scaling-stroke" d="
  M 280.97 254.30
  Q 278.16 252.93 275.34 254.97"
/>
<path stroke="#3ac2e2" vector-effect="non-scaling-stroke" d="
  M 275.34 254.97
  Q 275.04 253.70 274.35 254.06"
/>
<path stroke="#89bfd5" vector-effect="non-scaling-stroke" d="
  M 274.35 254.06
  L 273.67 253.53"
/>
<path stroke="#6895c4" vector-effect="non-scaling-stroke" d="
  M 243.62 281.17
  Q 239.48 284.99 241.65 290.96"
/>
<path stroke="#80b6cb" vector-effect="non-scaling-stroke" d="
  M 294.90 299.88
  Q 294.77 299.89 294.64 299.89"
/>
<path stroke="#89c9dc" vector-effect="non-scaling-stroke" d="
  M 294.64 299.89
  Q 290.77 297.13 285.17 298.36
  C 281.86 299.09 281.52 301.28 279.09 302.75"
/>
<path stroke="#89c9dc" vector-effect="non-scaling-stroke" d="
  M 221.80 305.56
  Q 221.13 305.63 219.95 305.33"
/>
<path stroke="#6895c4" vector-effect="non-scaling-stroke" d="
  M 219.95 305.33
  Q 216.98 304.56 215.12 305.37
  Q 212.98 306.31 212.11 306.29"
/>
<path stroke="#cacbca" vector-effect="non-scaling-stroke" d="
  M 297.08 299.10
  Q 296.73 298.72 296.21 298.51
  Q 295.44 298.20 296.27 298.13
  Q 296.71 298.10 296.86 298.11
  Q 298.52 298.25 297.36 297.12
  Q 296.85 296.61 296.24 296.89
  Q 295.87 297.05 295.48 296.92
  Q 293.63 296.27 291.73 296.59
  Q 291.25 296.67 290.94 296.28
  L 283.34 286.50
  A 0.28 0.27 48.2 0 0 282.92 286.47
  Q 282.66 286.73 282.52 286.07
  Q 282.42 285.60 281.95 285.49
  C 279.44 284.87 279.63 282.84 277.56 281.76
  Q 277.15 281.55 277.25 281.10
  Q 277.57 279.57 276.23 279.29"
/>
<path stroke="#83c2d7" vector-effect="non-scaling-stroke" d="
  M 276.23 279.29
  Q 280.57 274.46 285.24 269.84
  C 286.01 269.08 286.70 267.80 287.52 266.76
  Q 290.59 262.84 288.58 257.60"
/>
<path stroke="#89c9dc" vector-effect="non-scaling-stroke" d="
  M 276.23 279.29
  Q 269.04 287.02 266.99 288.74
  Q 263.70 291.50 260.77 294.63
  Q 257.76 297.84 255.65 298.59
  C 249.81 300.66 244.00 296.24 241.65 290.96"
/>
<path stroke="#218cd1" vector-effect="non-scaling-stroke" d="
  M 241.65 290.96
  Q 243.17 290.29 243.57 287.16"
/>
<path stroke="#92d2e6" vector-effect="non-scaling-stroke" d="
  M 243.57 287.16
  Q 244.96 288.26 246.50 287.80
  Q 246.97 287.66 247.09 287.18
  Q 247.34 286.28 246.84 285.23"
/>
<path stroke="#2183c3" vector-effect="non-scaling-stroke" d="
  M 248.16 288.47
  L 245.98 288.92
  Q 245.51 289.02 245.37 289.48
  L 245.18 290.13
  Q 245.00 290.75 245.63 290.88
  L 247.19 291.23
  Q 247.69 291.34 247.97 291.77
  Q 248.24 292.20 248.24 292.74
  Q 248.23 293.27 247.71 293.28
  L 247.26 293.29
  Q 246.61 293.31 246.71 293.95
  Q 246.86 295.00 248.40 295.49"
/>
<path stroke="#39add8" vector-effect="non-scaling-stroke" d="
  M 248.40 295.49
  Q 250.56 296.50 252.85 296.37
  A 1.51 1.47 22.3 0 0 253.74 296.01
  C 256.74 293.42 259.65 291.03 262.11 287.89
  Q 263.15 286.55 264.77 285.01
  Q 266.85 283.04 271.97 276.52"
/>
<path stroke="#2183c3" vector-effect="non-scaling-stroke" d="
  M 271.97 276.52
  L 284.08 264.30"
/>
<path stroke="#93e7f0" vector-effect="non-scaling-stroke" d="
  M 274.35 254.06
  Q 275.17 254.42 275.12 255.21
  A 0.88 0.87 77.8 0 1 274.66 255.93
  C 273.31 256.67 271.91 257.01 270.81 258.11
  Q 259.85 269.02 249.60 280.59
  Q 248.03 282.35 245.79 282.35"
/>
<path stroke="#719ece" vector-effect="non-scaling-stroke" d="
  M 245.79 282.35
  Q 245.09 282.19 244.96 281.44"
/>
<path stroke="#719ece" vector-effect="non-scaling-stroke" d="
  M 246.39 284.53
  Q 245.03 283.83 243.97 283.93
  Q 243.43 283.98 243.30 284.52
  Q 242.99 285.89 243.57 287.16"
/>
<path stroke="#80b6cb" vector-effect="non-scaling-stroke" d="
  M 196.56 294.77
  C 192.55 291.85 187.86 284.12 192.22 279.66"
/>
<path stroke="#89bfd5" vector-effect="non-scaling-stroke" d="
  M 194.96 282.05
  Q 191.29 282.79 194.51 285.50
  A 0.96 0.96 0.0 0 0 195.45 285.68
  Q 196.62 285.28 196.91 283.17"
/>
<path stroke="#89bfd5" vector-effect="non-scaling-stroke" d="
  M 195.96 290.30
  Q 195.87 290.48 195.85 290.69
  Q 195.80 291.16 196.26 291.23
  L 196.86 291.33"
/>
<path stroke="#3ac2e2" vector-effect="non-scaling-stroke" d="
  M 197.27 283.34
  Q 197.09 283.25 196.91 283.17"
/>
<path stroke="#93e7f0" vector-effect="non-scaling-stroke" d="
  M 196.91 283.17
  Q 196.76 282.87 194.96 282.05"
/>
<path stroke="#3ac2e2" vector-effect="non-scaling-stroke" d="
  M 194.96 282.05
  Q 196.38 282.71 196.99 281.58
  Q 197.26 281.09 196.77 280.81
  Q 196.40 280.59 195.79 280.59"
/>
<path stroke="#93e7f0" vector-effect="non-scaling-stroke" d="
  M 222.12 256.08
  C 220.13 257.15 218.26 257.81 216.66 259.45
  Q 206.99 269.41 197.71 279.71
  Q 196.91 280.59 195.79 280.59"
/>
<path stroke="#89bfd5" vector-effect="non-scaling-stroke" d="
  M 195.79 280.59
  L 193.58 280.03"
/>
<path stroke="#719ece" vector-effect="non-scaling-stroke" d="
  M 227.54 255.02
  Q 227.55 256.14 227.71 256.98
  Q 227.85 257.75 229.00 257.40"
/>
<path stroke="#1879c0" vector-effect="non-scaling-stroke" d="
  M 223.31 272.56
  Q 215.33 281.42 207.11 289.59
  C 205.73 290.96 205.61 292.60 203.82 293.86
  A 1.52 1.50 -62.0 0 1 202.96 294.13
  C 201.16 294.13 196.53 294.52 196.86 291.33"
/>
<path stroke="#719ece" vector-effect="non-scaling-stroke" d="
  M 196.86 291.33
  Q 198.04 290.69 198.22 289.84
  A 0.40 0.40 0.0 0 0 197.74 289.37
  Q 196.85 289.56 195.96 290.30"
/>
<path stroke="#1879c0" vector-effect="non-scaling-stroke" d="
  M 195.96 290.30
  Q 194.99 290.00 195.25 288.25
  Q 195.33 287.75 195.74 287.47
  Q 196.46 286.97 197.32 286.76
  Q 197.76 286.65 197.94 286.42
  Q 198.12 286.19 198.19 285.90
  Q 198.30 285.44 197.94 285.13
  Q 197.21 284.48 197.27 283.34"
/>
<path stroke="#22a1db" vector-effect="non-scaling-stroke" d="
  M 197.27 283.34
  Q 199.35 282.40 201.62 279.87
  Q 203.86 277.40 211.74 269.39"
/>
<path stroke="#1870b2" vector-effect="non-scaling-stroke" d="
  M 271.97 276.52
  Q 263.92 283.00 257.28 290.85
  Q 255.58 292.86 253.55 293.74
  Q 250.86 294.90 248.40 295.49"
/>
<path stroke="#1870b2" vector-effect="non-scaling-stroke" d="
  M 274.09 268.43
  L 260.66 282.64
  Q 260.45 282.86 260.72 283.00
  L 261.02 283.16
  Q 261.20 283.26 261.34 283.11
  L 280.17 263.87"
/>
<path stroke="#43d5f3" vector-effect="non-scaling-stroke" d="
  M 248.00 284.80
  Q 247.58 284.61 247.18 284.70
  A 0.38 0.36 -85.6 0 0 246.90 284.95
  Q 246.86 285.07 246.84 285.23"
/>
<path stroke="#93e7f0" vector-effect="non-scaling-stroke" d="
  M 246.84 285.23
  Q 246.48 285.18 246.39 284.53"
/>
<path stroke="#22a1db" vector-effect="non-scaling-stroke" d="
  M 246.39 284.53
  L 246.52 282.97
  Q 246.54 282.62 246.21 282.50
  L 245.79 282.35"
/>
<path stroke="#719ece" vector-effect="non-scaling-stroke" d="
  M 280.97 254.30
  Q 281.64 256.64 282.86 256.01"
/>
<path stroke="#004fab" vector-effect="non-scaling-stroke" d="
  M 282.86 256.01
  Q 281.77 256.21 281.52 258.57
  Q 281.46 259.04 281.73 259.42
  Q 282.92 261.19 280.17 263.87"
/>
<path stroke="#1879c0" vector-effect="non-scaling-stroke" d="
  M 280.17 263.87
  Q 280.14 263.42 280.14 263.40
  A 0.41 0.40 66.7 0 0 279.45 263.12
  L 274.09 268.43"
/>
<path stroke="#004fab" vector-effect="non-scaling-stroke" d="
  M 274.09 268.43
  Q 273.74 267.79 273.89 267.27
  Q 273.96 267.01 274.25 266.87
  Q 274.55 266.72 274.87 266.66
  Q 275.32 266.56 275.00 266.24
  L 274.79 266.04
  A 0.24 0.24 0.0 0 0 274.48 266.01
  L 265.06 272.46
  A 0.75 0.74 24.7 0 1 264.73 272.58
  C 263.59 272.69 263.00 273.77 262.36 274.22
  Q 260.43 275.58 258.74 277.29
  Q 258.43 277.61 258.33 278.05
  Q 258.00 279.62 256.63 280.18
  Q 256.19 280.36 255.97 280.79
  Q 255.53 281.67 254.58 281.94
  Q 254.11 282.07 253.91 282.52
  Q 253.60 283.23 252.92 283.55
  Q 252.42 283.79 252.22 284.31
  Q 251.71 285.62 250.36 285.91
  A 0.99 0.99 0.0 0 0 249.63 286.54
  Q 248.84 288.71 248.16 288.47"
/>
<path stroke="#218cd1" vector-effect="non-scaling-stroke" d="
  M 248.16 288.47
  L 248.38 287.29
  Q 248.47 286.82 248.08 286.53
  Q 247.45 286.08 247.45 285.24
  Q 247.44 284.93 248.00 284.80"
/>
<path stroke="#22a1db" vector-effect="non-scaling-stroke" d="
  M 248.00 284.80
  Q 249.63 284.88 251.02 283.50
  Q 256.46 278.10 261.55 272.35
  Q 261.59 272.30 261.56 272.15
  Q 261.54 272.08 261.62 272.00
  Q 265.23 268.29 268.78 264.52
  C 269.54 263.71 270.62 263.31 271.31 262.20
  Q 271.55 261.80 271.94 261.54
  Q 274.48 259.88 276.42 257.54
  Q 276.75 257.14 276.56 256.66
  Q 276.37 256.16 275.89 255.92
  Q 275.52 255.73 275.38 255.35
  Q 275.28 255.08 275.34 254.97"
/>
<path stroke="#7194c0" vector-effect="non-scaling-stroke" d="
  M 283.03 255.78
  Q 282.95 255.89 282.86 256.01"
/>
<path stroke="#89bfd5" vector-effect="non-scaling-stroke" d="
  M 258.29 327.96
  L 259.54 328.80"
/>
<path stroke="#39add8" vector-effect="non-scaling-stroke" d="
  M 259.54 328.80
  Q 260.09 329.12 260.23 329.37
  Q 260.39 329.65 259.86 329.85
  Q 259.15 330.12 258.23 330.26"
/>
<path stroke="#89bfd5" vector-effect="non-scaling-stroke" d="
  M 258.23 330.26
  Q 257.68 331.26 257.63 332.36
  Q 257.61 332.94 257.97 333.25
  Q 258.40 333.63 259.07 333.70
  A 0.63 0.63 0.0 0 0 259.76 333.20
  L 260.18 331.02"
/>
<path stroke="#39add8" vector-effect="non-scaling-stroke" d="
  M 260.18 331.02
  Q 261.02 330.85 261.38 331.07"
/>
<path stroke="#1879c0" vector-effect="non-scaling-stroke" d="
  M 261.38 331.07
  Q 261.66 332.04 261.58 332.89
  Q 261.54 333.39 261.15 333.69
  L 259.07 335.24
  Q 258.73 335.50 258.53 335.88
  Q 258.21 336.50 258.47 336.94
  Q 258.70 337.32 259.16 337.32
  L 260.51 337.30"
/>
<path stroke="#39add8" vector-effect="non-scaling-stroke" d="
  M 260.51 337.30
  Q 259.76 337.58 259.49 338.05
  Q 259.16 338.63 259.80 338.81
  Q 260.49 339.00 261.52 338.39"
/>
<path stroke="#1870b2" vector-effect="non-scaling-stroke" d="
  M 261.52 338.39
  Q 261.40 338.84 260.77 339.15
  A 0.56 0.56 0.0 0 0 260.64 340.07
  Q 261.01 340.40 261.77 340.57
  C 265.63 341.40 267.36 340.80 270.19 337.93
  Q 275.66 332.38 281.30 327.02
  C 284.37 324.10 287.44 320.24 290.01 317.82
  Q 292.44 315.53 294.59 313.03
  Q 296.71 310.55 296.98 308.54
  Q 297.39 305.43 294.80 303.31
  Q 294.27 302.88 294.10 303.54
  L 293.82 304.58"
/>
<path stroke="#39add8" vector-effect="non-scaling-stroke" d="
  M 293.82 304.58
  Q 293.97 302.76 291.98 302.81"
/>
<path stroke="#1879c0" vector-effect="non-scaling-stroke" d="
  M 291.98 302.81
  Q 291.71 302.22 290.75 302.43
  Q 289.85 302.63 288.91 302.72
  Q 288.04 302.81 287.74 303.21
  Q 287.33 303.74 287.50 304.64"
/>
<path stroke="#39add8" vector-effect="non-scaling-stroke" d="
  M 287.50 304.64
  Q 286.96 302.25 286.21 302.97"
/>
<path stroke="#89bfd5" vector-effect="non-scaling-stroke" d="
  M 286.21 302.97
  Q 285.44 302.23 284.85 302.05
  Q 284.30 301.88 283.56 302.63
  C 278.61 307.69 273.77 312.61 268.54 317.39"
/>
<path stroke="#39add8" vector-effect="non-scaling-stroke" d="
  M 294.64 299.89
  C 292.00 299.16 289.05 297.63 286.22 298.22
  A 1.18 1.17 9.0 0 0 285.46 298.77
  Q 284.58 300.24 282.89 300.43
  A 0.71 0.70 18.7 0 0 282.48 300.63
  L 267.46 316.15
  A 0.74 0.73 22.4 0 0 267.98 317.39
  L 268.54 317.39"
/>
<path stroke="#92d2e6" vector-effect="non-scaling-stroke" d="
  M 268.54 317.39
  L 258.29 327.96"
/>
<path stroke="#39add8" vector-effect="non-scaling-stroke" d="
  M 258.29 327.96
  Q 258.51 327.20 257.44 327.40
  Q 257.10 327.46 256.66 327.80
  Q 255.63 328.59 254.73 327.96"
/>
<path stroke="#218cd1" vector-effect="non-scaling-stroke" d="
  M 219.95 305.33
  Q 220.36 305.99 220.37 306.62
  Q 220.39 307.15 219.89 307.32
  L 217.43 308.20
  A 0.35 0.34 -54.4 0 0 217.54 308.87
  L 219.80 308.89
  A 0.99 0.97 -16.9 0 1 220.61 309.31
  C 221.33 310.35 222.22 312.40 223.81 311.73
  A 0.41 0.41 0.0 0 1 224.36 311.96
  L 224.46 312.24"
/>
<path stroke="#1879c0" vector-effect="non-scaling-stroke" d="
  M 224.46 312.24
  Q 224.53 312.50 224.51 312.57"
/>
<path stroke="#004fab" vector-effect="non-scaling-stroke" d="
  M 224.51 312.57
  Q 223.10 312.71 222.19 314.16
  Q 221.89 314.62 222.31 314.99
  Q 222.92 315.51 222.87 316.26
  Q 222.84 316.81 222.29 316.90
  Q 221.18 317.09 220.12 316.75
  Q 219.83 316.66 219.74 316.95
  Q 219.70 317.10 219.64 317.25
  Q 219.45 317.81 220.04 317.88
  L 220.56 317.94
  A 0.87 0.87 0.0 0 1 221.09 319.41
  L 197.94 343.54
  Q 197.57 343.93 197.03 343.92
  L 192.58 343.88
  A 0.81 0.80 -75.7 0 0 191.87 344.31
  Q 191.66 344.72 191.38 344.79"
/>
<path stroke="#218cd1" vector-effect="non-scaling-stroke" d="
  M 191.38 344.79
  Q 191.44 344.30 191.00 344.25
  Q 190.44 344.18 190.04 344.44"
/>
<path stroke="#1879c0" vector-effect="non-scaling-stroke" d="
  M 190.04 344.44
  Q 188.97 345.04 188.38 344.94
  Q 187.91 344.85 187.77 343.78
  Q 187.65 342.81 187.28 342.31
  Q 185.95 340.54 187.98 341.41
  Q 188.35 341.57 189.48 341.37"
/>
<path stroke="#719ece" vector-effect="non-scaling-stroke" d="
  M 189.48 341.37
  Q 190.01 341.48 190.28 340.53
  C 190.52 339.68 190.09 338.91 189.94 338.05"
/>
<path stroke="#22a1db" vector-effect="non-scaling-stroke" d="
  M 189.94 338.05
  Q 191.84 338.21 193.01 336.99
  Q 203.41 326.15 213.91 315.41
  Q 215.37 313.92 217.18 312.94
  Q 217.57 312.73 217.47 312.29
  Q 217.16 310.93 216.47 310.27"
/>
<path stroke="#719ece" vector-effect="non-scaling-stroke" d="
  M 216.47 310.27
  L 213.63 308.35
  Q 213.20 308.06 212.84 308.44
  L 211.01 310.39"
/>
<path stroke="#218cd1" vector-effect="non-scaling-stroke" d="
  M 211.01 310.39
  L 210.46 308.14"
/>
<path stroke="#39add8" vector-effect="non-scaling-stroke" d="
  M 200.57 350.63
  Q 202.72 347.50 205.56 344.98
  C 208.61 342.27 211.53 338.58 214.12 335.98
  Q 220.92 329.16 227.61 322.24
  Q 228.68 321.12 228.32 318.85
  A 1.02 1.01 61.3 0 1 228.56 318.01
  Q 229.43 317.03 228.93 315.88
  Q 228.68 315.32 228.25 315.75
  L 227.75 316.25
  A 0.37 0.36 -22.9 0 1 227.12 316.00
  L 227.12 313.80
  Q 227.12 313.39 226.84 313.09
  Q 225.91 312.14 224.46 312.24"
/>
<path stroke="#2183c3" vector-effect="non-scaling-stroke" d="
  M 261.52 338.39
  Q 262.09 337.84 261.43 337.21"
/>
<path stroke="#92d2e6" vector-effect="non-scaling-stroke" d="
  M 260.18 331.02
  Q 260.53 330.08 258.23 330.26"
/>
<path stroke="#218cd1" vector-effect="non-scaling-stroke" d="
  M 291.98 302.81
  Q 291.94 303.95 292.77 304.73
  Q 293.11 305.04 293.82 304.58"
/>
<path stroke="#004fab" vector-effect="non-scaling-stroke" d="
  M 293.82 304.58
  L 292.32 306.26
  Q 291.96 306.66 292.27 307.09
  Q 292.98 308.09 292.72 309.16
  Q 292.61 309.63 292.12 309.63
  Q 290.39 309.61 289.86 310.89
  Q 288.87 313.23 287.24 313.86
  Q 286.28 314.23 284.52 316.32
  C 282.56 318.66 280.07 320.22 277.88 322.30
  A 0.88 0.86 -17.7 0 0 277.64 322.75
  Q 277.49 323.63 276.83 324.17
  Q 276.51 324.43 276.66 324.82
  C 277.28 326.36 276.52 328.06 275.93 329.53
  C 275.46 330.73 274.21 331.57 273.20 332.30
  C 270.73 334.10 268.12 338.64 264.59 335.65
  A 0.55 0.54 54.0 0 0 264.04 335.56
  Q 261.31 336.61 261.43 337.21"
/>
<path stroke="#218cd1" vector-effect="non-scaling-stroke" d="
  M 261.43 337.21
  L 260.51 337.30"
/>
<path stroke="#218cd1" vector-effect="non-scaling-stroke" d="
  M 261.38 331.07
  Q 262.65 330.81 263.09 330.36
  Q 270.05 323.34 276.79 316.12
  Q 281.83 310.72 287.48 305.96
  Q 288.20 305.36 287.50 304.64"
/>
<path stroke="#92d2e6" vector-effect="non-scaling-stroke" d="
  M 286.21 302.97
  Q 285.45 304.38 283.67 305.65
  Q 281.65 307.10 280.84 307.91
  Q 270.81 317.89 261.06 328.14
  C 260.61 328.62 260.15 328.69 259.54 328.80"
/>
<path stroke="#93e7f0" vector-effect="non-scaling-stroke" d="
  M 189.94 338.05
  L 188.96 337.40"
/>
<path stroke="#3ac2e2" vector-effect="non-scaling-stroke" d="
  M 188.96 337.40
  Q 190.94 337.03 190.08 335.78"
/>
<path stroke="#93e7f0" vector-effect="non-scaling-stroke" d="
  M 216.47 310.27
  C 215.32 311.89 213.62 311.87 212.16 313.28
  Q 201.58 323.53 191.68 334.44
  Q 190.94 335.26 190.08 335.78"
/>
<path stroke="#89bfd5" vector-effect="non-scaling-stroke" d="
  M 190.08 335.78
  Q 188.51 335.70 187.59 334.56"
/>
<path stroke="#92d2e6" vector-effect="non-scaling-stroke" d="
  M 187.59 334.56
  L 211.01 310.39"
/>
<path stroke="#2183c3" vector-effect="non-scaling-stroke" d="
  M 190.54 346.21
  Q 191.11 345.62 191.38 344.79"
/>
<path stroke="#39add8" vector-effect="non-scaling-stroke" d="
  M 187.59 334.56
  L 185.03 334.45"
/>
<path stroke="#89bfd5" vector-effect="non-scaling-stroke" d="
  M 188.96 337.40
  Q 188.16 336.98 187.39 336.88
  Q 186.88 336.82 186.72 337.30
  Q 185.75 340.24 189.48 341.37"
/>
<path stroke="#39add8" vector-effect="non-scaling-stroke" d="
  M 190.04 344.44
  Q 187.95 346.46 190.54 346.21"
/>
<path stroke="#1870b2" vector-effect="non-scaling-stroke" d="
  M 190.54 346.21
  Q 190.07 347.24 190.78 347.80
  Q 191.19 348.11 192.08 348.12
  Q 194.35 348.13 196.70 348.13
  Q 197.18 348.13 197.47 347.75
  C 199.76 344.74 203.33 341.61 205.14 339.73
  Q 214.08 330.38 223.21 321.21
  Q 225.99 318.42 225.01 313.20
  Q 224.96 312.96 224.83 312.84
  Q 224.71 312.72 224.51 312.57"
/>
<path stroke="#ebba4d" vector-effect="non-scaling-stroke" d="
  M 74.61 140.24
  L 68.72 151.76"
/>
<path stroke="#f5cf54" vector-effect="non-scaling-stroke" d="
  M 64.23 201.30
  Q 68.30 200.91 68.87 197.75
  Q 69.21 195.91 67.27 195.07"
/>
<path stroke="#f5cf54" vector-effect="non-scaling-stroke" d="
  M 162.88 156.92
  L 162.98 157.21
  Q 163.09 157.53 163.37 157.34
  C 165.95 155.57 166.09 151.23 163.87 149.15
  C 161.79 147.20 157.79 144.84 155.10 147.05
  Q 154.70 147.37 154.69 147.88
  C 154.64 150.12 154.74 152.29 156.54 153.87
  Q 159.13 156.15 162.67 156.75
  Q 162.83 156.78 162.88 156.92"
/>
<path stroke="#e8e9e9" vector-effect="non-scaling-stroke" d="
  M 249.40 188.35
  C 251.85 190.51 260.62 195.94 264.47 195.91
  A 1.03 1.02 71.3 0 0 265.28 194.27
  Q 260.40 187.73 254.47 182.36
  C 252.89 180.92 250.19 179.26 248.42 177.22
  Q 244.81 173.08 244.52 172.82
  Q 240.25 169.08 234.96 166.80
  A 1.03 1.02 -74.3 0 0 233.54 167.60
  Q 233.21 170.00 234.72 172.10
  Q 241.13 181.06 249.40 188.35"
/>
<path stroke="#1879c0" vector-effect="non-scaling-stroke" d="
  M 203.31 289.27
  L 228.15 263.55
  A 0.10 0.10 0.0 0 0 228.14 263.41
  L 228.09 263.36
  A 0.93 0.29 44.0 0 0 227.22 262.92
  L 202.65 288.37
  A 0.93 0.29 44.0 0 0 203.11 289.23
  L 203.16 289.28
  A 0.10 0.10 0.0 0 0 203.31 289.27"
/>
<path stroke="#43d5f3" vector-effect="non-scaling-stroke" d="
  M 133.51 294.96
  Q 133.89 294.81 134.24 294.94
  A 0.37 0.36 32.6 0 1 134.37 295.53
  L 128.02 302.28"
/>
<path stroke="#92d2e6" vector-effect="non-scaling-stroke" d="
  M 128.02 302.28
  Q 127.26 302.56 126.87 302.12
  Q 126.20 301.36 125.21 301.13
  Q 124.67 301.01 124.62 301.55
  Q 124.43 303.48 125.54 304.52"
/>
<path stroke="#39add8" vector-effect="non-scaling-stroke" d="
  M 125.54 304.52
  Q 123.92 307.30 126.69 310.29"
/>
<path stroke="#218cd1" vector-effect="non-scaling-stroke" d="
  M 126.69 310.29
  Q 129.68 313.43 132.99 313.09
  Q 135.24 312.87 138.21 309.89
  Q 153.38 294.63 168.05 278.87
  C 169.32 277.49 171.60 276.11 172.62 273.70
  Q 172.70 273.51 172.66 273.36
  Q 172.60 273.14 172.41 273.05
  Q 172.03 272.87 171.91 272.47
  L 170.78 268.72
  Q 170.63 268.24 170.13 268.25
  Q 168.30 268.28 168.31 267.02"
/>
<path stroke="#92d2e6" vector-effect="non-scaling-stroke" d="
  M 168.31 267.02
  L 169.39 267.58
  Q 170.10 267.94 169.93 267.16
  Q 169.29 264.28 167.82 266.14"
/>
<path stroke="#218cd1" vector-effect="non-scaling-stroke" d="
  M 167.82 266.14
  Q 165.36 263.45 162.81 266.42"
/>
<path stroke="#43d5f3" vector-effect="non-scaling-stroke" d="
  M 162.81 266.42
  Q 162.88 266.53 162.96 266.64"
/>
<path stroke="#92d2e6" vector-effect="non-scaling-stroke" d="
  M 162.96 266.64
  C 161.45 263.83 159.88 263.50 157.65 265.84
  Q 141.61 282.65 125.33 299.20
  A 0.44 0.44 0.0 0 0 125.51 299.93
  L 127.52 300.54
  Q 128.17 300.74 128.63 300.25
  L 133.51 294.96"
/>
<path stroke="#93e7f0" vector-effect="non-scaling-stroke" d="
  M 162.96 266.64
  Q 159.06 268.81 155.96 271.84
  Q 144.46 283.10 133.51 294.96"
/>
<path stroke="#3ac2e2" vector-effect="non-scaling-stroke" d="
  M 164.07 267.30
  C 164.20 269.29 162.23 269.74 161.32 270.60
  C 150.59 280.85 140.65 291.90 130.21 302.44
  Q 129.81 302.85 128.20 303.08"
/>
<path stroke="#93e7f0" vector-effect="non-scaling-stroke" d="
  M 128.20 303.08
  L 128.02 302.28"
/>
<path stroke="#719ece" vector-effect="non-scaling-stroke" d="
  M 167.82 266.14
  L 168.31 267.02"
/>
<path stroke="#1879c0" vector-effect="non-scaling-stroke" d="
  M 126.69 310.29
  C 126.46 308.56 126.62 305.97 129.20 306.46
  A 0.55 0.55 0.0 0 0 129.83 306.03
  C 130.43 303.08 131.36 302.29 133.48 300.35
  C 137.53 296.63 141.14 292.35 144.91 288.35
  C 146.71 286.45 149.54 284.17 151.55 281.67
  C 152.61 280.35 154.17 279.27 155.27 277.82
  Q 155.52 277.49 155.93 277.40
  Q 157.02 277.14 157.65 276.12
  Q 160.15 272.03 164.31 269.29
  A 1.28 1.27 -20.1 0 0 164.87 268.10
  Q 164.72 266.77 164.07 267.30"
/>
<path stroke="#22a1db" vector-effect="non-scaling-stroke" d="
  M 164.07 267.30
  L 162.81 266.42"
/>
<path stroke="#89bfd5" vector-effect="non-scaling-stroke" d="
  M 125.54 304.52
  L 127.43 305.00
  Q 128.04 305.15 127.97 304.53
  Q 127.86 303.52 128.20 303.08"
/>
<path stroke="#218cd1" vector-effect="non-scaling-stroke" d="
  M 129.23 308.75
  Q 128.34 308.90 128.06 309.29
  Q 127.71 309.77 128.12 310.42
  A 0.50 0.50 0.0 0 0 128.78 310.60
  Q 129.64 310.17 129.75 309.23
  A 0.45 0.44 -2.0 0 0 129.23 308.75"
/>
</g>
<path fill="#fade64" d="
  M 114.73 102.34
  C 115.44 105.49 112.45 105.50 111.23 107.28
  Q 109.36 110.03 109.75 114.24
  C 100.95 110.07 106.17 98.71 114.73 102.34
  Z"
/>
<path fill="#db9635" d="
  M 114.73 102.34
  Q 119.04 105.20 117.89 109.38
  Q 116.22 115.48 109.75 114.24
  Q 109.36 110.03 111.23 107.28
  C 112.45 105.50 115.44 105.49 114.73 102.34
  Z"
/>
<path fill="#f0c044" d="
  M 170.16 104.23
  L 170.63 105.95
  Q 170.77 106.46 170.39 106.82
  C 169.10 108.03 168.15 108.36 167.56 110.16
  Q 167.41 110.64 167.03 110.97
  Q 165.79 112.08 165.01 113.57
  Q 164.75 114.07 164.20 114.23
  L 162.60 114.71
  L 161.61 113.33
  C 162.60 111.88 164.10 110.68 164.81 109.32
  Q 166.44 106.18 165.51 103.56
  Q 167.77 102.97 170.16 104.23
  Z"
/>
<path fill="#fade64" d="
  M 165.51 103.56
  Q 166.44 106.18 164.81 109.32
  C 164.10 110.68 162.60 111.88 161.61 113.33
  C 158.98 109.60 160.92 104.34 165.51 103.56
  Z"
/>
<path fill="#db9635" d="
  M 170.16 104.23
  C 173.38 106.38 174.29 109.92 172.09 113.21
  Q 168.95 117.91 162.60 114.71
  L 164.20 114.23
  Q 164.75 114.07 165.01 113.57
  Q 165.79 112.08 167.03 110.97
  Q 167.41 110.64 167.56 110.16
  C 168.15 108.36 169.10 108.03 170.39 106.82
  Q 170.77 106.46 170.63 105.95
  L 170.16 104.23
  Z"
/>
<path fill="#fade64" d="
  M 159.83 128.41
  Q 161.08 130.75 157.23 129.08
  Q 156.75 128.87 156.25 129.01
  Q 155.05 129.36 154.09 128.52
  Q 153.74 128.20 153.27 128.22
  L 148.14 128.35
  Q 147.70 128.36 147.53 128.76
  Q 147.27 129.39 146.65 129.59
  Q 146.24 129.72 146.16 130.15
  Q 146.08 130.60 145.71 130.92
  Q 144.97 131.54 145.18 132.12
  A 0.35 0.32 -42.1 0 1 145.15 132.42
  Q 143.44 135.45 142.98 138.80
  C 142.27 144.04 138.32 147.29 135.88 151.13
  Q 134.26 153.66 132.51 155.14
  Q 132.14 155.45 132.16 155.94
  C 132.32 160.66 129.95 162.41 127.24 165.62
  Q 126.92 166.01 126.86 166.51
  Q 126.60 168.61 125.69 170.50
  A 1.33 1.30 50.6 0 0 125.61 171.44
  Q 126.15 173.38 125.23 175.14
  Q 125.01 175.54 124.96 175.99
  L 124.27 181.96
  Q 124.21 182.51 124.66 182.82
  C 128.42 185.39 131.97 184.51 136.01 184.36
  Q 136.30 184.35 136.41 184.62
  Q 136.50 184.81 136.73 184.87
  Q 136.96 184.94 137.27 184.76
  Q 139.18 183.64 141.11 182.56
  Q 141.46 182.36 141.72 182.66
  Q 142.44 183.50 143.73 182.99
  Q 144.48 182.70 145.26 182.41
  C 147.26 181.69 150.02 177.94 151.32 176.21
  Q 151.41 176.09 151.50 175.71
  Q 151.62 175.23 151.94 174.85
  C 153.41 173.12 154.03 171.02 155.42 169.37
  Q 155.75 168.99 155.79 168.50
  Q 156.04 165.91 157.94 164.11
  Q 158.05 164.02 158.08 163.91
  Q 158.12 163.73 158.08 163.60
  Q 157.99 163.36 158.13 163.14
  Q 158.96 161.78 159.03 160.22
  A 1.15 1.12 -31.7 0 1 159.14 159.78
  Q 159.94 158.13 158.42 157.30
  A 0.57 0.55 -74.0 0 1 158.13 156.76
  Q 158.18 156.16 157.67 156.12
  Q 157.29 156.09 157.05 155.79
  C 154.25 152.31 152.24 148.96 155.18 145.48
  Q 155.51 145.09 156.01 144.99
  Q 160.51 144.09 163.30 147.48
  C 163.84 148.14 164.50 147.96 165.01 148.77
  Q 166.07 150.45 166.62 152.43
  A 0.89 0.88 -1.1 0 0 167.27 153.05
  Q 168.82 153.39 170.49 152.06
  C 168.02 154.96 165.36 157.48 163.56 160.88
  C 156.58 174.09 149.63 185.68 136.85 192.75
  C 130.40 196.32 120.05 199.19 113.73 202.20
  Q 107.71 205.06 101.11 211.49
  C 75.54 182.95 87.87 138.39 123.76 126.74
  Q 141.85 120.86 159.83 128.41
  Z
  M 162.88 156.92
  L 162.98 157.21
  Q 163.09 157.53 163.37 157.34
  C 165.95 155.57 166.09 151.23 163.87 149.15
  C 161.79 147.20 157.79 144.84 155.10 147.05
  Q 154.70 147.37 154.69 147.88
  C 154.64 150.12 154.74 152.29 156.54 153.87
  Q 159.13 156.15 162.67 156.75
  Q 162.83 156.78 162.88 156.92
  Z"
/>
<path fill="#f0c044" d="
  M 159.83 128.41
  Q 172.29 133.53 180.82 144.50
  Q 179.67 145.26 178.39 145.99
  Q 174.00 148.50 170.49 152.06
  Q 168.82 153.39 167.27 153.05
  A 0.89 0.88 -1.1 0 1 166.62 152.43
  Q 166.07 150.45 165.01 148.77
  C 164.50 147.96 163.84 148.14 163.30 147.48
  Q 160.51 144.09 156.01 144.99
  Q 155.51 145.09 155.18 145.48
  C 152.24 148.96 154.25 152.31 157.05 155.79
  Q 157.29 156.09 157.67 156.12
  Q 158.18 156.16 158.13 156.76
  A 0.57 0.55 -74.0 0 0 158.42 157.30
  Q 159.94 158.13 159.14 159.78
  A 1.15 1.12 -31.7 0 0 159.03 160.22
  Q 158.96 161.78 158.13 163.14
  Q 157.99 163.36 158.08 163.60
  Q 158.12 163.73 158.08 163.91
  Q 158.05 164.02 157.94 164.11
  Q 156.04 165.91 155.79 168.50
  Q 155.75 168.99 155.42 169.37
  C 154.03 171.02 153.41 173.12 151.94 174.85
  Q 151.62 175.23 151.50 175.71
  Q 151.41 176.09 151.32 176.21
  C 150.02 177.94 147.26 181.69 145.26 182.41
  Q 144.48 182.70 143.73 182.99
  Q 142.44 183.50 141.72 182.66
  Q 141.46 182.36 141.11 182.56
  Q 139.18 183.64 137.27 184.76
  Q 136.96 184.94 136.73 184.87
  Q 136.50 184.81 136.41 184.62
  Q 136.30 184.35 136.01 184.36
  C 131.97 184.51 128.42 185.39 124.66 182.82
  Q 124.21 182.51 124.27 181.96
  L 124.96 175.99
  Q 125.01 175.54 125.23 175.14
  Q 126.15 173.38 125.61 171.44
  A 1.33 1.30 50.6 0 1 125.69 170.50
  Q 126.60 168.61 126.86 166.51
  Q 126.92 166.01 127.24 165.62
  C 129.95 162.41 132.32 160.66 132.16 155.94
  Q 132.14 155.45 132.51 155.14
  Q 134.26 153.66 135.88 151.13
  C 138.32 147.29 142.27 144.04 142.98 138.80
  Q 143.44 135.45 145.15 132.42
  A 0.35 0.32 -42.1 0 0 145.18 132.12
  Q 144.97 131.54 145.71 130.92
  Q 146.08 130.60 146.16 130.15
  Q 146.24 129.72 146.65 129.59
  Q 147.27 129.39 147.53 128.76
  Q 147.70 128.36 148.14 128.35
  L 153.27 128.22
  Q 153.74 128.20 154.09 128.52
  Q 155.05 129.36 156.25 129.01
  Q 156.75 128.87 157.23 129.08
  Q 161.08 130.75 159.83 128.41
  Z"
/>
<path fill="#eeefef" d="
  M 215.94 139.20
  Q 217.04 139.74 217.08 140.51
  Q 217.09 140.63 217.16 140.71
  Q 217.28 140.84 217.44 140.85
  Q 218.23 140.89 217.76 141.25
  Q 217.59 141.38 217.39 141.38
  Q 216.92 141.38 216.81 141.83
  C 215.97 145.27 215.53 147.63 213.82 149.61
  Q 213.50 149.98 213.44 150.46
  C 213.25 152.24 212.19 153.55 211.82 155.01
  Q 211.16 157.59 210.82 160.25
  Q 210.78 160.61 210.92 160.92
  Q 211.10 161.30 210.98 161.71
  L 209.99 165.23
  Q 209.97 165.28 209.93 165.31
  Q 209.82 165.37 209.66 165.38
  Q 209.60 165.38 209.61 165.44
  Q 209.79 166.20 209.45 166.70
  Q 209.33 166.86 209.26 167.03
  Q 208.17 169.56 207.62 172.27
  Q 207.50 172.87 206.91 173.06
  Q 206.14 173.31 206.47 174.02
  A 1.13 1.00 -61.4 0 1 206.58 174.50
  C 206.53 177.77 206.00 182.21 203.39 184.04
  Q 202.84 184.44 203.23 184.99
  Q 203.50 185.38 203.32 185.90
  Q 203.25 186.12 203.02 186.12
  Q 202.88 186.12 202.74 186.11
  A 0.46 0.46 0.0 0 0 202.38 186.89
  L 202.64 187.15
  Q 202.95 187.45 202.63 187.75
  Q 201.33 188.93 201.46 190.75
  A 3.00 2.96 -27.4 0 1 200.78 192.85
  L 197.27 197.13
  Q 196.97 197.50 197.14 197.94
  Q 197.56 199.07 196.88 200.39
  Q 196.39 201.35 195.47 201.11
  A 0.28 0.27 -82.2 0 0 195.12 201.38
  L 195.12 201.72
  Q 195.12 202.27 194.67 202.60
  C 192.81 203.99 191.27 206.03 188.91 206.39
  Q 188.48 206.45 188.21 206.80
  Q 187.28 208.01 185.99 208.77
  C 184.16 209.86 182.99 210.98 180.50 211.60
  Q 171.77 213.78 165.50 214.06
  Q 165.28 214.07 165.19 213.91
  Q 165.08 213.72 164.86 213.67
  C 159.97 212.69 151.78 212.95 147.67 216.20
  C 146.61 217.05 145.27 217.49 144.35 218.23
  Q 139.99 221.78 138.39 224.66
  Q 137.07 227.04 136.06 228.37
  C 134.78 230.05 134.15 231.67 133.04 233.28
  Q 132.87 233.53 132.56 233.58
  Q 132.14 233.65 131.89 234.00
  Q 124.01 245.21 116.96 256.98
  C 115.92 258.71 114.17 260.41 113.03 262.31
  Q 111.39 265.02 109.50 267.55
  C 108.86 268.40 108.54 269.58 107.71 270.45
  C 106.09 272.15 105.01 273.75 103.44 275.22
  C 101.93 276.64 99.60 276.83 97.84 278.33
  Q 97.51 278.62 97.08 278.71
  Q 95.30 279.07 93.85 280.14
  Q 93.46 280.43 92.98 280.39
  L 91.62 280.29
  C 78.55 257.64 82.36 229.87 101.11 211.49
  Q 107.71 205.06 113.73 202.20
  C 120.05 199.19 130.40 196.32 136.85 192.75
  C 149.63 185.68 156.58 174.09 163.56 160.88
  C 165.36 157.48 168.02 154.96 170.49 152.06
  Q 174.00 148.50 178.39 145.99
  Q 179.67 145.26 180.82 144.50
  Q 197.63 135.78 215.94 139.20
  Z"
/>
<path fill="#e1e3e3" d="
  M 215.94 139.20
  C 229.47 141.73 241.89 149.18 252.11 157.90
  C 257.91 162.84 264.33 169.24 269.75 173.63
  C 281.30 182.98 295.88 190.72 306.12 197.15
  Q 317.21 204.12 325.02 214.46
  Q 324.73 215.02 325.13 215.71
  Q 325.31 216.01 325.02 216.20
  Q 324.12 216.79 322.96 216.73
  A 0.86 0.85 -76.4 0 0 322.12 217.25
  Q 321.80 218.04 321.01 218.16
  Q 320.48 218.23 320.42 218.77
  Q 320.27 220.21 318.82 220.14
  Q 318.31 220.11 317.95 220.47
  Q 316.34 222.05 314.37 223.14
  Q 313.96 223.37 313.67 223.73
  C 313.02 224.53 311.76 224.81 311.05 225.38
  C 309.36 226.72 307.88 228.46 306.15 229.66
  Q 305.11 230.40 304.07 231.14
  Q 304.00 231.18 304.00 231.26
  Q 304.00 231.42 304.00 231.58
  Q 304.00 231.72 303.90 231.81
  Q 301.63 233.60 299.86 235.85
  C 298.76 237.25 297.41 238.05 296.12 239.20
  C 293.12 241.91 290.17 244.02 287.68 247.30
  Q 287.39 247.69 286.94 247.88
  Q 286.03 248.27 285.44 249.08
  Q 285.17 249.45 285.17 249.91
  Q 285.18 250.26 284.98 250.53
  Q 284.68 250.95 284.15 250.89
  Q 283.74 250.83 283.45 250.50
  Q 283.14 250.14 282.65 250.11
  Q 282.17 250.08 281.67 250.25
  L 280.71 250.10
  C 277.08 248.58 273.34 250.28 270.42 252.73
  L 243.88 280.21
  Q 244.88 278.69 244.95 277.10
  Q 244.97 276.72 245.33 276.60
  Q 245.61 276.51 245.63 276.07
  A 0.41 0.40 -8.6 0 0 245.08 275.67
  Q 239.79 277.64 234.00 276.59
  Q 232.72 276.36 230.46 277.31
  Q 229.99 277.51 229.52 277.31
  Q 228.67 276.95 228.04 276.32
  Q 227.60 275.86 227.26 276.40
  Q 226.59 277.47 225.64 277.18
  Q 230.18 272.60 233.97 267.48
  C 240.01 259.32 227.81 246.86 219.82 251.49
  Q 218.65 252.17 213.49 257.37
  Q 202.95 268.00 192.71 278.93
  Q 191.14 279.21 190.70 280.12
  Q 190.52 280.48 190.24 280.19
  Q 188.90 278.84 187.04 279.00
  C 185.44 279.13 184.22 278.44 182.52 278.70
  Q 180.50 279.01 178.43 279.03
  Q 177.93 279.04 177.65 278.64
  L 176.16 276.58
  Q 176.22 270.94 175.71 269.51
  Q 173.52 263.23 165.74 261.42
  Q 161.41 260.42 157.69 264.20
  Q 142.71 279.42 127.94 294.85
  C 124.57 298.38 122.23 299.20 121.73 304.75
  Q 102.17 297.76 91.62 280.29
  L 92.98 280.39
  Q 93.46 280.43 93.85 280.14
  Q 95.30 279.07 97.08 278.71
  Q 97.51 278.62 97.84 278.33
  C 99.60 276.83 101.93 276.64 103.44 275.22
  C 105.01 273.75 106.09 272.15 107.71 270.45
  C 108.54 269.58 108.86 268.40 109.50 267.55
  Q 111.39 265.02 113.03 262.31
  C 114.17 260.41 115.92 258.71 116.96 256.98
  Q 124.01 245.21 131.89 234.00
  Q 132.14 233.65 132.56 233.58
  Q 132.87 233.53 133.04 233.28
  C 134.15 231.67 134.78 230.05 136.06 228.37
  Q 137.07 227.04 138.39 224.66
  Q 139.99 221.78 144.35 218.23
  C 145.27 217.49 146.61 217.05 147.67 216.20
  C 151.78 212.95 159.97 212.69 164.86 213.67
  Q 165.08 213.72 165.19 213.91
  Q 165.28 214.07 165.50 214.06
  Q 171.77 213.78 180.50 211.60
  C 182.99 210.98 184.16 209.86 185.99 208.77
  Q 187.28 208.01 188.21 206.80
  Q 188.48 206.45 188.91 206.39
  C 191.27 206.03 192.81 203.99 194.67 202.60
  Q 195.12 202.27 195.12 201.72
  L 195.12 201.38
  A 0.28 0.27 -82.2 0 1 195.47 201.11
  Q 196.39 201.35 196.88 200.39
  Q 197.56 199.07 197.14 197.94
  Q 196.97 197.50 197.27 197.13
  L 200.78 192.85
  A 3.00 2.96 -27.4 0 0 201.46 190.75
  Q 201.33 188.93 202.63 187.75
  Q 202.95 187.45 202.64 187.15
  L 202.38 186.89
  A 0.46 0.46 0.0 0 1 202.74 186.11
  Q 202.88 186.12 203.02 186.12
  Q 203.25 186.12 203.32 185.90
  Q 203.50 185.38 203.23 184.99
  Q 202.84 184.44 203.39 184.04
  C 206.00 182.21 206.53 177.77 206.58 174.50
  A 1.13 1.00 -61.4 0 0 206.47 174.02
  Q 206.14 173.31 206.91 173.06
  Q 207.50 172.87 207.62 172.27
  Q 208.17 169.56 209.26 167.03
  Q 209.33 166.86 209.45 166.70
  Q 209.79 166.20 209.61 165.44
  Q 209.60 165.38 209.66 165.38
  Q 209.82 165.37 209.93 165.31
  Q 209.97 165.28 209.99 165.23
  L 210.98 161.71
  Q 211.10 161.30 210.92 160.92
  Q 210.78 160.61 210.82 160.25
  Q 211.16 157.59 211.82 155.01
  C 212.19 153.55 213.25 152.24 213.44 150.46
  Q 213.50 149.98 213.82 149.61
  C 215.53 147.63 215.97 145.27 216.81 141.83
  Q 216.92 141.38 217.39 141.38
  Q 217.59 141.38 217.76 141.25
  Q 218.23 140.89 217.44 140.85
  Q 217.28 140.84 217.16 140.71
  Q 217.09 140.63 217.08 140.51
  Q 217.04 139.74 215.94 139.20
  Z
  M 249.40 188.35
  C 251.85 190.51 260.62 195.94 264.47 195.91
  A 1.03 1.02 71.3 0 0 265.28 194.27
  Q 260.40 187.73 254.47 182.36
  C 252.89 180.92 250.19 179.26 248.42 177.22
  Q 244.81 173.08 244.52 172.82
  Q 240.25 169.08 234.96 166.80
  A 1.03 1.02 -74.3 0 0 233.54 167.60
  Q 233.21 170.00 234.72 172.10
  Q 241.13 181.06 249.40 188.35
  Z"
/>
<path fill="#fade64" d="
  M 74.61 140.24
  L 68.72 151.76
  Q 65.13 149.83 65.12 146.75
  Q 65.11 137.95 74.61 140.24
  Z"
/>
<path fill="#db9635" d="
  M 74.61 140.24
  Q 79.39 143.53 77.38 148.38
  Q 75.08 153.92 68.72 151.76
  L 74.61 140.24
  Z"
/>
<path fill="#f0c044" d="
  M 162.67 156.75
  Q 159.13 156.15 156.54 153.87
  C 154.74 152.29 154.64 150.12 154.69 147.88
  Q 154.70 147.37 155.10 147.05
  C 157.79 144.84 161.79 147.20 163.87 149.15
  C 166.09 151.23 165.95 155.57 163.37 157.34
  Q 163.09 157.53 162.98 157.21
  L 162.88 156.92
  Q 162.83 156.78 162.67 156.75
  Z"
/>
<path fill="#eeefef" d="
  M 264.47 195.91
  C 260.62 195.94 251.85 190.51 249.40 188.35
  Q 241.13 181.06 234.72 172.10
  Q 233.21 170.00 233.54 167.60
  A 1.03 1.02 -74.3 0 1 234.96 166.80
  Q 240.25 169.08 244.52 172.82
  Q 244.81 173.08 248.42 177.22
  C 250.19 179.26 252.89 180.92 254.47 182.36
  Q 260.40 187.73 265.28 194.27
  A 1.03 1.02 71.3 0 1 264.47 195.91
  Z"
/>
<path fill="#f0c044" d="
  M 64.23 201.30
  Q 68.30 200.91 68.87 197.75
  Q 69.21 195.91 67.27 195.07
  C 73.45 191.14 79.99 199.15 75.21 204.87
  C 71.79 208.96 65.10 206.73 64.23 201.30
  Z"
/>
<path fill="#fade64" d="
  M 67.27 195.07
  Q 69.21 195.91 68.87 197.75
  Q 68.30 200.91 64.23 201.30
  Q 63.90 197.03 67.27 195.07
  Z"
/>
<path fill="#d0d1cf" d="
  M 325.02 214.46
  Q 334.85 227.45 336.58 243.52
  L 336.35 250.32
  Q 336.33 250.80 335.85 250.85
  Q 335.40 250.89 335.35 250.38
  Q 335.31 250.02 335.08 249.74
  L 333.00 247.09
  Q 332.71 246.71 332.27 246.51
  Q 331.53 246.15 331.05 245.37
  A 0.10 0.10 0.0 0 0 330.87 245.43
  L 330.87 245.73
  A 0.34 0.33 -67.6 0 1 330.30 245.97
  L 328.85 244.49
  Q 328.43 244.07 327.84 244.14
  Q 327.29 244.20 327.04 243.75
  A 0.62 0.40 -77.8 0 1 326.98 243.59
  Q 326.87 243.19 326.88 242.81
  Q 326.90 242.30 326.39 242.26
  Q 325.08 242.18 324.44 241.14
  Q 324.15 240.66 323.63 240.88
  Q 322.40 241.40 321.27 240.73
  Q 320.82 240.47 320.31 240.53
  Q 314.94 241.21 313.50 241.63
  Q 310.83 242.43 303.91 245.98
  Q 303.52 246.18 303.43 246.61
  L 303.37 246.90
  Q 303.31 247.15 303.13 247.31
  L 298.41 251.50
  Q 298.12 251.75 297.74 251.71
  Q 297.27 251.66 296.82 252.08
  Q 294.77 254.04 292.47 255.70
  Q 291.24 256.59 290.88 257.97
  Q 290.76 258.42 290.31 258.33
  Q 289.25 258.12 288.58 257.60
  L 287.44 255.29
  Q 286.24 252.78 284.00 251.65
  Q 282.23 250.76 281.67 250.25
  Q 282.17 250.08 282.65 250.11
  Q 283.14 250.14 283.45 250.50
  Q 283.74 250.83 284.15 250.89
  Q 284.68 250.95 284.98 250.53
  Q 285.18 250.26 285.17 249.91
  Q 285.17 249.45 285.44 249.08
  Q 286.03 248.27 286.94 247.88
  Q 287.39 247.69 287.68 247.30
  C 290.17 244.02 293.12 241.91 296.12 239.20
  C 297.41 238.05 298.76 237.25 299.86 235.85
  Q 301.63 233.60 303.90 231.81
  Q 304.00 231.72 304.00 231.58
  Q 304.00 231.42 304.00 231.26
  Q 304.00 231.18 304.07 231.14
  Q 305.11 230.40 306.15 229.66
  C 307.88 228.46 309.36 226.72 311.05 225.38
  C 311.76 224.81 313.02 224.53 313.67 223.73
  Q 313.96 223.37 314.37 223.14
  Q 316.34 222.05 317.95 220.47
  Q 318.31 220.11 318.82 220.14
  Q 320.27 220.21 320.42 218.77
  Q 320.48 218.23 321.01 218.16
  Q 321.80 218.04 322.12 217.25
  A 0.86 0.85 -76.4 0 1 322.96 216.73
  Q 324.12 216.79 325.02 216.20
  Q 325.31 216.01 325.13 215.71
  Q 324.73 215.02 325.02 214.46
  Z"
/>
<path fill="#c3c4c4" d="
  M 336.58 243.52
  C 338.29 269.88 322.34 292.19 297.08 299.10
  Q 296.73 298.72 296.21 298.51
  Q 295.44 298.20 296.27 298.13
  Q 296.71 298.10 296.86 298.11
  Q 298.52 298.25 297.36 297.12
  Q 296.85 296.61 296.24 296.89
  Q 295.87 297.05 295.48 296.92
  Q 293.63 296.27 291.73 296.59
  Q 291.25 296.67 290.94 296.28
  L 283.34 286.50
  A 0.28 0.27 48.2 0 0 282.92 286.47
  Q 282.66 286.73 282.52 286.07
  Q 282.42 285.60 281.95 285.49
  C 279.44 284.87 279.63 282.84 277.56 281.76
  Q 277.15 281.55 277.25 281.10
  Q 277.57 279.57 276.23 279.29
  Q 280.57 274.46 285.24 269.84
  C 286.01 269.08 286.70 267.80 287.52 266.76
  Q 290.59 262.84 288.58 257.60
  Q 289.25 258.12 290.31 258.33
  Q 290.76 258.42 290.88 257.97
  Q 291.24 256.59 292.47 255.70
  Q 294.77 254.04 296.82 252.08
  Q 297.27 251.66 297.74 251.71
  Q 298.12 251.75 298.41 251.50
  L 303.13 247.31
  Q 303.31 247.15 303.37 246.90
  L 303.43 246.61
  Q 303.52 246.18 303.91 245.98
  Q 310.83 242.43 313.50 241.63
  Q 314.94 241.21 320.31 240.53
  Q 320.82 240.47 321.27 240.73
  Q 322.40 241.40 323.63 240.88
  Q 324.15 240.66 324.44 241.14
  Q 325.08 242.18 326.39 242.26
  Q 326.90 242.30 326.88 242.81
  Q 326.87 243.19 326.98 243.59
  A 0.62 0.40 -77.8 0 0 327.04 243.75
  Q 327.29 244.20 327.84 244.14
  Q 328.43 244.07 328.85 244.49
  L 330.30 245.97
  A 0.34 0.33 -67.6 0 0 330.87 245.73
  L 330.87 245.43
  A 0.10 0.10 0.0 0 1 331.05 245.37
  Q 331.53 246.15 332.27 246.51
  Q 332.71 246.71 333.00 247.09
  L 335.08 249.74
  Q 335.31 250.02 335.35 250.38
  Q 335.40 250.89 335.85 250.85
  Q 336.33 250.80 336.35 250.32
  L 336.58 243.52
  Z"
/>
<path fill="#0058b9" d="
  M 280.71 250.10
  Q 280.95 250.28 280.94 250.52
  Q 280.93 251.07 280.38 251.06
  Q 277.14 250.97 274.74 253.15
  Q 274.48 253.37 274.14 253.36
  Q 273.87 253.35 273.67 253.53
  Q 271.94 252.53 271.30 253.34
  Q 270.49 253.28 270.42 252.73
  C 273.34 250.28 277.08 248.58 280.71 250.10
  Z"
/>
<path fill="#309ac7" d="
  M 280.71 250.10
  L 281.67 250.25
  Q 282.23 250.76 284.00 251.65
  Q 286.24 252.78 287.44 255.29
  Q 286.32 260.82 284.08 264.30
  C 284.94 262.35 286.49 256.22 283.03 255.78
  Q 282.60 253.60 280.97 254.30
  Q 278.16 252.93 275.34 254.97
  Q 275.04 253.70 274.35 254.06
  L 273.67 253.53
  Q 273.87 253.35 274.14 253.36
  Q 274.48 253.37 274.74 253.15
  Q 277.14 250.97 280.38 251.06
  Q 280.93 251.07 280.94 250.52
  Q 280.95 250.28 280.71 250.10
  Z"
/>
<path fill="#42c0e9" d="
  M 225.64 277.18
  Q 223.32 279.20 221.46 281.72
  Q 221.23 282.04 220.89 282.20
  Q 220.53 282.38 220.26 282.68
  Q 211.26 292.60 207.96 295.20
  C 204.54 297.89 199.85 296.98 196.56 294.77
  Q 199.49 295.46 202.60 295.46
  C 205.39 295.46 207.24 293.78 208.89 291.78
  Q 209.77 290.73 210.71 290.05
  C 213.36 288.14 215.27 284.31 217.37 281.73
  Q 217.67 281.36 217.82 280.92
  Q 218.17 279.92 219.22 278.86
  Q 221.77 276.30 223.31 272.56
  L 230.98 263.48
  Q 231.31 263.09 231.33 262.59
  Q 231.43 260.01 231.09 258.50
  Q 230.77 257.08 229.00 257.40
  Q 229.22 257.14 229.34 256.80
  Q 229.48 256.37 229.18 256.02
  Q 228.16 254.85 227.54 255.02
  Q 225.20 254.25 223.17 255.22
  Q 222.49 255.55 223.09 256.01
  L 223.91 256.64
  Q 224.32 256.95 224.17 257.45
  Q 223.64 259.19 221.87 259.84
  Q 221.42 260.00 221.07 260.33
  L 211.74 269.39
  Q 215.21 264.72 221.87 258.00
  Q 222.81 257.05 222.12 256.08
  Q 221.55 254.80 220.11 254.11
  A 1.92 1.91 -55.0 0 0 217.89 254.51
  L 193.58 280.03
  Q 192.96 279.50 192.22 279.66
  Q 192.67 279.35 192.71 278.93
  Q 202.95 268.00 213.49 257.37
  Q 218.65 252.17 219.82 251.49
  C 227.81 246.86 240.01 259.32 233.97 267.48
  Q 230.18 272.60 225.64 277.18
  Z"
/>
<path fill="#42c0e9" d="
  M 270.42 252.73
  Q 270.49 253.28 271.30 253.34
  L 244.96 281.44
  Q 244.57 281.18 243.62 281.17
  L 243.88 280.21
  L 270.42 252.73
  Z"
/>
<path fill="#e1e3e3" d="
  M 273.67 253.53
  L 274.35 254.06
  Q 275.17 254.42 275.12 255.21
  A 0.88 0.87 77.8 0 1 274.66 255.93
  C 273.31 256.67 271.91 257.01 270.81 258.11
  Q 259.85 269.02 249.60 280.59
  Q 248.03 282.35 245.79 282.35
  Q 245.09 282.19 244.96 281.44
  L 271.30 253.34
  Q 271.94 252.53 273.67 253.53
  Z"
/>
<path fill="#e1e3e3" d="
  M 222.12 256.08
  C 220.13 257.15 218.26 257.81 216.66 259.45
  Q 206.99 269.41 197.71 279.71
  Q 196.91 280.59 195.79 280.59
  L 193.58 280.03
  L 217.89 254.51
  A 1.92 1.91 -55.0 0 1 220.11 254.11
  Q 221.55 254.80 222.12 256.08
  Z"
/>
<path fill="#0058b9" d="
  M 280.97 254.30
  Q 281.64 256.64 282.86 256.01
  Q 281.77 256.21 281.52 258.57
  Q 281.46 259.04 281.73 259.42
  Q 282.92 261.19 280.17 263.87
  Q 280.14 263.42 280.14 263.40
  A 0.41 0.40 66.7 0 0 279.45 263.12
  L 274.09 268.43
  Q 273.74 267.79 273.89 267.27
  Q 273.96 267.01 274.25 266.87
  Q 274.55 266.72 274.87 266.66
  Q 275.32 266.56 275.00 266.24
  L 274.79 266.04
  A 0.24 0.24 0.0 0 0 274.48 266.01
  L 265.06 272.46
  A 0.75 0.74 24.7 0 1 264.73 272.58
  C 263.59 272.69 263.00 273.77 262.36 274.22
  Q 260.43 275.58 258.74 277.29
  Q 258.43 277.61 258.33 278.05
  Q 258.00 279.62 256.63 280.18
  Q 256.19 280.36 255.97 280.79
  Q 255.53 281.67 254.58 281.94
  Q 254.11 282.07 253.91 282.52
  Q 253.60 283.23 252.92 283.55
  Q 252.42 283.79 252.22 284.31
  Q 251.71 285.62 250.36 285.91
  A 0.99 0.99 0.0 0 0 249.63 286.54
  Q 248.84 288.71 248.16 288.47
  L 248.38 287.29
  Q 248.47 286.82 248.08 286.53
  Q 247.45 286.08 247.45 285.24
  Q 247.44 284.93 248.00 284.80
  Q 249.63 284.88 251.02 283.50
  Q 256.46 278.10 261.55 272.35
  Q 261.59 272.30 261.56 272.15
  Q 261.54 272.08 261.62 272.00
  Q 265.23 268.29 268.78 264.52
  C 269.54 263.71 270.62 263.31 271.31 262.20
  Q 271.55 261.80 271.94 261.54
  Q 274.48 259.88 276.42 257.54
  Q 276.75 257.14 276.56 256.66
  Q 276.37 256.16 275.89 255.92
  Q 275.52 255.73 275.38 255.35
  Q 275.28 255.08 275.34 254.97
  Q 278.16 252.93 280.97 254.30
  Z"
/>
<path fill="#44eafc" d="
  M 274.35 254.06
  Q 275.04 253.70 275.34 254.97
  Q 275.28 255.08 275.38 255.35
  Q 275.52 255.73 275.89 255.92
  Q 276.37 256.16 276.56 256.66
  Q 276.75 257.14 276.42 257.54
  Q 274.48 259.88 271.94 261.54
  Q 271.55 261.80 271.31 262.20
  C 270.62 263.31 269.54 263.71 268.78 264.52
  Q 265.23 268.29 261.62 272.00
  Q 261.54 272.08 261.56 272.15
  Q 261.59 272.30 261.55 272.35
  Q 256.46 278.10 251.02 283.50
  Q 249.63 284.88 248.00 284.80
  Q 247.58 284.61 247.18 284.70
  A 0.38 0.36 -85.6 0 0 246.90 284.95
  Q 246.86 285.07 246.84 285.23
  Q 246.48 285.18 246.39 284.53
  L 246.52 282.97
  Q 246.54 282.62 246.21 282.50
  L 245.79 282.35
  Q 248.03 282.35 249.60 280.59
  Q 259.85 269.02 270.81 258.11
  C 271.91 257.01 273.31 256.67 274.66 255.93
  A 0.88 0.87 77.8 0 0 275.12 255.21
  Q 275.17 254.42 274.35 254.06
  Z"
/>
<path fill="#e1e3e3" d="
  M 283.03 255.78
  Q 282.95 255.89 282.86 256.01
  Q 281.64 256.64 280.97 254.30
  Q 282.60 253.60 283.03 255.78
  Z"
/>
<path fill="#0058b9" d="
  M 227.54 255.02
  Q 227.55 256.14 227.71 256.98
  Q 227.85 257.75 229.00 257.40
  Q 230.77 257.08 231.09 258.50
  Q 231.43 260.01 231.33 262.59
  Q 231.31 263.09 230.98 263.48
  L 223.31 272.56
  Q 215.33 281.42 207.11 289.59
  C 205.73 290.96 205.61 292.60 203.82 293.86
  A 1.52 1.50 -62.0 0 1 202.96 294.13
  C 201.16 294.13 196.53 294.52 196.86 291.33
  Q 198.04 290.69 198.22 289.84
  A 0.40 0.40 0.0 0 0 197.74 289.37
  Q 196.85 289.56 195.96 290.30
  Q 194.99 290.00 195.25 288.25
  Q 195.33 287.75 195.74 287.47
  Q 196.46 286.97 197.32 286.76
  Q 197.76 286.65 197.94 286.42
  Q 198.12 286.19 198.19 285.90
  Q 198.30 285.44 197.94 285.13
  Q 197.21 284.48 197.27 283.34
  Q 199.35 282.40 201.62 279.87
  Q 203.86 277.40 211.74 269.39
  L 221.07 260.33
  Q 221.42 260.00 221.87 259.84
  Q 223.64 259.19 224.17 257.45
  Q 224.32 256.95 223.91 256.64
  L 223.09 256.01
  Q 222.49 255.55 223.17 255.22
  Q 225.20 254.25 227.54 255.02
  Z
  M 203.31 289.27
  L 228.15 263.55
  A 0.10 0.10 0.0 0 0 228.14 263.41
  L 228.09 263.36
  A 0.93 0.29 44.0 0 0 227.22 262.92
  L 202.65 288.37
  A 0.93 0.29 44.0 0 0 203.11 289.23
  L 203.16 289.28
  A 0.10 0.10 0.0 0 0 203.31 289.27
  Z"
/>
<path fill="#e1e3e3" d="
  M 229.00 257.40
  Q 227.85 257.75 227.71 256.98
  Q 227.55 256.14 227.54 255.02
  Q 228.16 254.85 229.18 256.02
  Q 229.48 256.37 229.34 256.80
  Q 229.22 257.14 229.00 257.40
  Z"
/>
<path fill="#42c0e9" d="
  M 287.44 255.29
  L 288.58 257.60
  Q 290.59 262.84 287.52 266.76
  C 286.70 267.80 286.01 269.08 285.24 269.84
  Q 280.57 274.46 276.23 279.29
  Q 269.04 287.02 266.99 288.74
  Q 263.70 291.50 260.77 294.63
  Q 257.76 297.84 255.65 298.59
  C 249.81 300.66 244.00 296.24 241.65 290.96
  Q 243.17 290.29 243.57 287.16
  Q 244.96 288.26 246.50 287.80
  Q 246.97 287.66 247.09 287.18
  Q 247.34 286.28 246.84 285.23
  Q 246.86 285.07 246.90 284.95
  A 0.38 0.36 -85.6 0 1 247.18 284.70
  Q 247.58 284.61 248.00 284.80
  Q 247.44 284.93 247.45 285.24
  Q 247.45 286.08 248.08 286.53
  Q 248.47 286.82 248.38 287.29
  L 248.16 288.47
  L 245.98 288.92
  Q 245.51 289.02 245.37 289.48
  L 245.18 290.13
  Q 245.00 290.75 245.63 290.88
  L 247.19 291.23
  Q 247.69 291.34 247.97 291.77
  Q 248.24 292.20 248.24 292.74
  Q 248.23 293.27 247.71 293.28
  L 247.26 293.29
  Q 246.61 293.31 246.71 293.95
  Q 246.86 295.00 248.40 295.49
  Q 250.56 296.50 252.85 296.37
  A 1.51 1.47 22.3 0 0 253.74 296.01
  C 256.74 293.42 259.65 291.03 262.11 287.89
  Q 263.15 286.55 264.77 285.01
  Q 266.85 283.04 271.97 276.52
  L 284.08 264.30
  Q 286.32 260.82 287.44 255.29
  Z"
/>
<path fill="#00459c" d="
  M 283.03 255.78
  C 286.49 256.22 284.94 262.35 284.08 264.30
  L 271.97 276.52
  Q 263.92 283.00 257.28 290.85
  Q 255.58 292.86 253.55 293.74
  Q 250.86 294.90 248.40 295.49
  Q 246.86 295.00 246.71 293.95
  Q 246.61 293.31 247.26 293.29
  L 247.71 293.28
  Q 248.23 293.27 248.24 292.74
  Q 248.24 292.20 247.97 291.77
  Q 247.69 291.34 247.19 291.23
  L 245.63 290.88
  Q 245.00 290.75 245.18 290.13
  L 245.37 289.48
  Q 245.51 289.02 245.98 288.92
  L 248.16 288.47
  Q 248.84 288.71 249.63 286.54
  A 0.99 0.99 0.0 0 1 250.36 285.91
  Q 251.71 285.62 252.22 284.31
  Q 252.42 283.79 252.92 283.55
  Q 253.60 283.23 253.91 282.52
  Q 254.11 282.07 254.58 281.94
  Q 255.53 281.67 255.97 280.79
  Q 256.19 280.36 256.63 280.18
  Q 258.00 279.62 258.33 278.05
  Q 258.43 277.61 258.74 277.29
  Q 260.43 275.58 262.36 274.22
  C 263.00 273.77 263.59 272.69 264.73 272.58
  A 0.75 0.74 24.7 0 0 265.06 272.46
  L 274.48 266.01
  A 0.24 0.24 0.0 0 1 274.79 266.04
  L 275.00 266.24
  Q 275.32 266.56 274.87 266.66
  Q 274.55 266.72 274.25 266.87
  Q 273.96 267.01 273.89 267.27
  Q 273.74 267.79 274.09 268.43
  L 260.66 282.64
  Q 260.45 282.86 260.72 283.00
  L 261.02 283.16
  Q 261.20 283.26 261.34 283.11
  L 280.17 263.87
  Q 282.92 261.19 281.73 259.42
  Q 281.46 259.04 281.52 258.57
  Q 281.77 256.21 282.86 256.01
  Q 282.95 255.89 283.03 255.78
  Z"
/>
<path fill="#44eafc" d="
  M 222.12 256.08
  Q 222.81 257.05 221.87 258.00
  Q 215.21 264.72 211.74 269.39
  Q 203.86 277.40 201.62 279.87
  Q 199.35 282.40 197.27 283.34
  Q 197.09 283.25 196.91 283.17
  Q 196.76 282.87 194.96 282.05
  Q 196.38 282.71 196.99 281.58
  Q 197.26 281.09 196.77 280.81
  Q 196.40 280.59 195.79 280.59
  Q 196.91 280.59 197.71 279.71
  Q 206.99 269.41 216.66 259.45
  C 218.26 257.81 220.13 257.15 222.12 256.08
  Z"
/>
<path fill="#42c0e9" d="
  M 176.16 276.58
  L 172.87 281.08
  A 1.44 1.43 -83.4 0 1 172.32 281.52
  C 171.32 281.98 170.95 283.04 170.35 283.61
  C 163.64 289.91 158.37 296.66 151.23 303.37
  Q 151.12 303.48 151.07 303.63
  Q 151.04 303.75 150.99 303.87
  Q 150.93 304.04 150.77 304.19
  Q 148.12 306.70 145.44 309.33
  C 142.92 311.67 139.78 315.65 136.23 316.14
  C 130.40 316.95 124.89 312.85 122.88 307.57
  Q 122.29 305.99 121.73 304.75
  C 122.23 299.20 124.57 298.38 127.94 294.85
  Q 142.71 279.42 157.69 264.20
  Q 161.41 260.42 165.74 261.42
  Q 173.52 263.23 175.71 269.51
  Q 176.22 270.94 176.16 276.58
  Z
  M 133.51 294.96
  Q 133.89 294.81 134.24 294.94
  A 0.37 0.36 32.6 0 1 134.37 295.53
  L 128.02 302.28
  Q 127.26 302.56 126.87 302.12
  Q 126.20 301.36 125.21 301.13
  Q 124.67 301.01 124.62 301.55
  Q 124.43 303.48 125.54 304.52
  Q 123.92 307.30 126.69 310.29
  Q 129.68 313.43 132.99 313.09
  Q 135.24 312.87 138.21 309.89
  Q 153.38 294.63 168.05 278.87
  C 169.32 277.49 171.60 276.11 172.62 273.70
  Q 172.70 273.51 172.66 273.36
  Q 172.60 273.14 172.41 273.05
  Q 172.03 272.87 171.91 272.47
  L 170.78 268.72
  Q 170.63 268.24 170.13 268.25
  Q 168.30 268.28 168.31 267.02
  L 169.39 267.58
  Q 170.10 267.94 169.93 267.16
  Q 169.29 264.28 167.82 266.14
  Q 165.36 263.45 162.81 266.42
  Q 162.88 266.53 162.96 266.64
  C 161.45 263.83 159.88 263.50 157.65 265.84
  Q 141.61 282.65 125.33 299.20
  A 0.44 0.44 0.0 0 0 125.51 299.93
  L 127.52 300.54
  Q 128.17 300.74 128.63 300.25
  L 133.51 294.96
  Z"
/>
<path fill="#309ac7" d="
  M 203.31 289.27
  A 0.10 0.10 0.0 0 1 203.16 289.28
  L 203.11 289.23
  A 0.93 0.29 44.0 0 1 202.65 288.37
  L 227.22 262.92
  A 0.93 0.29 44.0 0 1 228.09 263.36
  L 228.14 263.41
  A 0.10 0.10 0.0 0 1 228.15 263.55
  L 203.31 289.27
  Z"
/>
<path fill="#309ac7" d="
  M 280.17 263.87
  L 261.34 283.11
  Q 261.20 283.26 261.02 283.16
  L 260.72 283.00
  Q 260.45 282.86 260.66 282.64
  L 274.09 268.43
  L 279.45 263.12
  A 0.41 0.40 66.7 0 1 280.14 263.40
  Q 280.14 263.42 280.17 263.87
  Z"
/>
<path fill="#e1e3e3" d="
  M 162.96 266.64
  Q 159.06 268.81 155.96 271.84
  Q 144.46 283.10 133.51 294.96
  L 128.63 300.25
  Q 128.17 300.74 127.52 300.54
  L 125.51 299.93
  A 0.44 0.44 0.0 0 1 125.33 299.20
  Q 141.61 282.65 157.65 265.84
  C 159.88 263.50 161.45 263.83 162.96 266.64
  Z"
/>
<path fill="#0058b9" d="
  M 167.82 266.14
  L 168.31 267.02
  Q 168.30 268.28 170.13 268.25
  Q 170.63 268.24 170.78 268.72
  L 171.91 272.47
  Q 172.03 272.87 172.41 273.05
  Q 172.60 273.14 172.66 273.36
  Q 172.70 273.51 172.62 273.70
  C 171.60 276.11 169.32 277.49 168.05 278.87
  Q 153.38 294.63 138.21 309.89
  Q 135.24 312.87 132.99 313.09
  Q 129.68 313.43 126.69 310.29
  C 126.46 308.56 126.62 305.97 129.20 306.46
  A 0.55 0.55 0.0 0 0 129.83 306.03
  C 130.43 303.08 131.36 302.29 133.48 300.35
  C 137.53 296.63 141.14 292.35 144.91 288.35
  C 146.71 286.45 149.54 284.17 151.55 281.67
  C 152.61 280.35 154.17 279.27 155.27 277.82
  Q 155.52 277.49 155.93 277.40
  Q 157.02 277.14 157.65 276.12
  Q 160.15 272.03 164.31 269.29
  A 1.28 1.27 -20.1 0 0 164.87 268.10
  Q 164.72 266.77 164.07 267.30
  L 162.81 266.42
  Q 165.36 263.45 167.82 266.14
  Z
  M 129.23 308.75
  Q 128.34 308.90 128.06 309.29
  Q 127.71 309.77 128.12 310.42
  A 0.50 0.50 0.0 0 0 128.78 310.60
  Q 129.64 310.17 129.75 309.23
  A 0.45 0.44 -2.0 0 0 129.23 308.75
  Z"
/>
<path fill="#e1e3e3" d="
  M 168.31 267.02
  L 167.82 266.14
  Q 169.29 264.28 169.93 267.16
  Q 170.10 267.94 169.39 267.58
  L 168.31 267.02
  Z"
/>
<path fill="#44eafc" d="
  M 162.96 266.64
  Q 162.88 266.53 162.81 266.42
  L 164.07 267.30
  C 164.20 269.29 162.23 269.74 161.32 270.60
  C 150.59 280.85 140.65 291.90 130.21 302.44
  Q 129.81 302.85 128.20 303.08
  L 128.02 302.28
  L 134.37 295.53
  A 0.37 0.36 32.6 0 0 134.24 294.94
  Q 133.89 294.81 133.51 294.96
  Q 144.46 283.10 155.96 271.84
  Q 159.06 268.81 162.96 266.64
  Z"
/>
<path fill="#309ac7" d="
  M 164.07 267.30
  Q 164.72 266.77 164.87 268.10
  A 1.28 1.27 -20.1 0 1 164.31 269.29
  Q 160.15 272.03 157.65 276.12
  Q 157.02 277.14 155.93 277.40
  Q 155.52 277.49 155.27 277.82
  C 154.17 279.27 152.61 280.35 151.55 281.67
  C 149.54 284.17 146.71 286.45 144.91 288.35
  C 141.14 292.35 137.53 296.63 133.48 300.35
  C 131.36 302.29 130.43 303.08 129.83 306.03
  A 0.55 0.55 0.0 0 1 129.20 306.46
  C 126.62 305.97 126.46 308.56 126.69 310.29
  Q 123.92 307.30 125.54 304.52
  L 127.43 305.00
  Q 128.04 305.15 127.97 304.53
  Q 127.86 303.52 128.20 303.08
  Q 129.81 302.85 130.21 302.44
  C 140.65 291.90 150.59 280.85 161.32 270.60
  C 162.23 269.74 164.20 269.29 164.07 267.30
  Z"
/>
<path fill="#309ac7" d="
  M 223.31 272.56
  Q 221.77 276.30 219.22 278.86
  Q 218.17 279.92 217.82 280.92
  Q 217.67 281.36 217.37 281.73
  C 215.27 284.31 213.36 288.14 210.71 290.05
  Q 209.77 290.73 208.89 291.78
  C 207.24 293.78 205.39 295.46 202.60 295.46
  Q 199.49 295.46 196.56 294.77
  C 192.55 291.85 187.86 284.12 192.22 279.66
  Q 192.96 279.50 193.58 280.03
  L 195.79 280.59
  Q 196.40 280.59 196.77 280.81
  Q 197.26 281.09 196.99 281.58
  Q 196.38 282.71 194.96 282.05
  Q 191.29 282.79 194.51 285.50
  A 0.96 0.96 0.0 0 0 195.45 285.68
  Q 196.62 285.28 196.91 283.17
  Q 197.09 283.25 197.27 283.34
  Q 197.21 284.48 197.94 285.13
  Q 198.30 285.44 198.19 285.90
  Q 198.12 286.19 197.94 286.42
  Q 197.76 286.65 197.32 286.76
  Q 196.46 286.97 195.74 287.47
  Q 195.33 287.75 195.25 288.25
  Q 194.99 290.00 195.96 290.30
  Q 195.87 290.48 195.85 290.69
  Q 195.80 291.16 196.26 291.23
  L 196.86 291.33
  C 196.53 294.52 201.16 294.13 202.96 294.13
  A 1.52 1.50 -62.0 0 0 203.82 293.86
  C 205.61 292.60 205.73 290.96 207.11 289.59
  Q 215.33 281.42 223.31 272.56
  Z"
/>
<path fill="#d0d1cf" d="
  M 243.88 280.21
  L 243.62 281.17
  Q 239.48 284.99 241.65 290.96
  C 244.00 296.24 249.81 300.66 255.65 298.59
  Q 257.76 297.84 260.77 294.63
  Q 263.70 291.50 266.99 288.74
  Q 269.04 287.02 276.23 279.29
  Q 277.57 279.57 277.25 281.10
  Q 277.15 281.55 277.56 281.76
  C 279.63 282.84 279.44 284.87 281.95 285.49
  Q 282.42 285.60 282.52 286.07
  Q 282.66 286.73 282.92 286.47
  A 0.28 0.27 48.2 0 1 283.34 286.50
  L 290.94 296.28
  Q 291.25 296.67 291.73 296.59
  Q 293.63 296.27 295.48 296.92
  Q 295.87 297.05 296.24 296.89
  Q 296.85 296.61 297.36 297.12
  Q 298.52 298.25 296.86 298.11
  Q 296.71 298.10 296.27 298.13
  Q 295.44 298.20 296.21 298.51
  Q 296.73 298.72 297.08 299.10
  L 294.90 299.88
  Q 294.77 299.89 294.64 299.89
  Q 290.77 297.13 285.17 298.36
  C 281.86 299.09 281.52 301.28 279.09 302.75
  C 261.61 303.84 241.78 303.26 222.75 305.02
  Q 222.31 305.06 221.80 305.56
  Q 221.13 305.63 219.95 305.33
  Q 216.98 304.56 215.12 305.37
  Q 212.98 306.31 212.11 306.29
  C 189.76 307.42 169.31 310.34 145.44 309.33
  Q 148.12 306.70 150.77 304.19
  Q 150.93 304.04 150.99 303.87
  Q 151.04 303.75 151.07 303.63
  Q 151.12 303.48 151.23 303.37
  C 158.37 296.66 163.64 289.91 170.35 283.61
  C 170.95 283.04 171.32 281.98 172.32 281.52
  A 1.44 1.43 -83.4 0 0 172.87 281.08
  L 176.16 276.58
  L 177.65 278.64
  Q 177.93 279.04 178.43 279.03
  Q 180.50 279.01 182.52 278.70
  C 184.22 278.44 185.44 279.13 187.04 279.00
  Q 188.90 278.84 190.24 280.19
  Q 190.52 280.48 190.70 280.12
  Q 191.14 279.21 192.71 278.93
  Q 192.67 279.35 192.22 279.66
  C 187.86 284.12 192.55 291.85 196.56 294.77
  C 199.85 296.98 204.54 297.89 207.96 295.20
  Q 211.26 292.60 220.26 282.68
  Q 220.53 282.38 220.89 282.20
  Q 221.23 282.04 221.46 281.72
  Q 223.32 279.20 225.64 277.18
  Q 226.59 277.47 227.26 276.40
  Q 227.60 275.86 228.04 276.32
  Q 228.67 276.95 229.52 277.31
  Q 229.99 277.51 230.46 277.31
  Q 232.72 276.36 234.00 276.59
  Q 239.79 277.64 245.08 275.67
  A 0.41 0.40 -8.6 0 1 245.63 276.07
  Q 245.61 276.51 245.33 276.60
  Q 244.97 276.72 244.95 277.10
  Q 244.88 278.69 243.88 280.21
  Z"
/>
<path fill="#309ac7" d="
  M 271.97 276.52
  Q 266.85 283.04 264.77 285.01
  Q 263.15 286.55 262.11 287.89
  C 259.65 291.03 256.74 293.42 253.74 296.01
  A 1.51 1.47 22.3 0 1 252.85 296.37
  Q 250.56 296.50 248.40 295.49
  Q 250.86 294.90 253.55 293.74
  Q 255.58 292.86 257.28 290.85
  Q 263.92 283.00 271.97 276.52
  Z"
/>
<path fill="#0058b9" d="
  M 243.62 281.17
  Q 244.57 281.18 244.96 281.44
  Q 245.09 282.19 245.79 282.35
  L 246.21 282.50
  Q 246.54 282.62 246.52 282.97
  L 246.39 284.53
  Q 245.03 283.83 243.97 283.93
  Q 243.43 283.98 243.30 284.52
  Q 242.99 285.89 243.57 287.16
  Q 243.17 290.29 241.65 290.96
  Q 239.48 284.99 243.62 281.17
  Z"
/>
<path fill="#e1e3e3" d="
  M 194.96 282.05
  Q 196.76 282.87 196.91 283.17
  Q 196.62 285.28 195.45 285.68
  A 0.96 0.96 0.0 0 1 194.51 285.50
  Q 191.29 282.79 194.96 282.05
  Z"
/>
<path fill="#e1e3e3" d="
  M 246.39 284.53
  Q 246.48 285.18 246.84 285.23
  Q 247.34 286.28 247.09 287.18
  Q 246.97 287.66 246.50 287.80
  Q 244.96 288.26 243.57 287.16
  Q 242.99 285.89 243.30 284.52
  Q 243.43 283.98 243.97 283.93
  Q 245.03 283.83 246.39 284.53
  Z"
/>
<path fill="#e1e3e3" d="
  M 196.86 291.33
  L 196.26 291.23
  Q 195.80 291.16 195.85 290.69
  Q 195.87 290.48 195.96 290.30
  Q 196.85 289.56 197.74 289.37
  A 0.40 0.40 0.0 0 1 198.22 289.84
  Q 198.04 290.69 196.86 291.33
  Z"
/>
<path fill="#42c0e9" d="
  M 294.64 299.89
  C 292.00 299.16 289.05 297.63 286.22 298.22
  A 1.18 1.17 9.0 0 0 285.46 298.77
  Q 284.58 300.24 282.89 300.43
  A 0.71 0.70 18.7 0 0 282.48 300.63
  L 267.46 316.15
  A 0.74 0.73 22.4 0 0 267.98 317.39
  L 268.54 317.39
  L 258.29 327.96
  Q 258.51 327.20 257.44 327.40
  Q 257.10 327.46 256.66 327.80
  Q 255.63 328.59 254.73 327.96
  L 279.09 302.75
  C 281.52 301.28 281.86 299.09 285.17 298.36
  Q 290.77 297.13 294.64 299.89
  Z"
/>
<path fill="#309ac7" d="
  M 294.64 299.89
  Q 294.77 299.89 294.90 299.88
  C 301.42 304.67 302.39 311.73 296.67 317.67
  Q 279.49 335.52 273.41 341.66
  C 268.76 346.35 263.03 345.43 258.34 341.43
  Q 252.34 336.31 254.73 327.96
  Q 255.63 328.59 256.66 327.80
  Q 257.10 327.46 257.44 327.40
  Q 258.51 327.20 258.29 327.96
  L 259.54 328.80
  Q 260.09 329.12 260.23 329.37
  Q 260.39 329.65 259.86 329.85
  Q 259.15 330.12 258.23 330.26
  Q 257.68 331.26 257.63 332.36
  Q 257.61 332.94 257.97 333.25
  Q 258.40 333.63 259.07 333.70
  A 0.63 0.63 0.0 0 0 259.76 333.20
  L 260.18 331.02
  Q 261.02 330.85 261.38 331.07
  Q 261.66 332.04 261.58 332.89
  Q 261.54 333.39 261.15 333.69
  L 259.07 335.24
  Q 258.73 335.50 258.53 335.88
  Q 258.21 336.50 258.47 336.94
  Q 258.70 337.32 259.16 337.32
  L 260.51 337.30
  Q 259.76 337.58 259.49 338.05
  Q 259.16 338.63 259.80 338.81
  Q 260.49 339.00 261.52 338.39
  Q 261.40 338.84 260.77 339.15
  A 0.56 0.56 0.0 0 0 260.64 340.07
  Q 261.01 340.40 261.77 340.57
  C 265.63 341.40 267.36 340.80 270.19 337.93
  Q 275.66 332.38 281.30 327.02
  C 284.37 324.10 287.44 320.24 290.01 317.82
  Q 292.44 315.53 294.59 313.03
  Q 296.71 310.55 296.98 308.54
  Q 297.39 305.43 294.80 303.31
  Q 294.27 302.88 294.10 303.54
  L 293.82 304.58
  Q 293.97 302.76 291.98 302.81
  Q 291.71 302.22 290.75 302.43
  Q 289.85 302.63 288.91 302.72
  Q 288.04 302.81 287.74 303.21
  Q 287.33 303.74 287.50 304.64
  Q 286.96 302.25 286.21 302.97
  Q 285.44 302.23 284.85 302.05
  Q 284.30 301.88 283.56 302.63
  C 278.61 307.69 273.77 312.61 268.54 317.39
  L 267.98 317.39
  A 0.74 0.73 22.4 0 1 267.46 316.15
  L 282.48 300.63
  A 0.71 0.70 18.7 0 1 282.89 300.43
  Q 284.58 300.24 285.46 298.77
  A 1.18 1.17 9.0 0 1 286.22 298.22
  C 289.05 297.63 292.00 299.16 294.64 299.89
  Z"
/>
<path fill="#e1e3e3" d="
  M 128.02 302.28
  L 128.20 303.08
  Q 127.86 303.52 127.97 304.53
  Q 128.04 305.15 127.43 305.00
  L 125.54 304.52
  Q 124.43 303.48 124.62 301.55
  Q 124.67 301.01 125.21 301.13
  Q 126.20 301.36 126.87 302.12
  Q 127.26 302.56 128.02 302.28
  Z"
/>
<path fill="#e1e3e3" d="
  M 286.21 302.97
  Q 285.45 304.38 283.67 305.65
  Q 281.65 307.10 280.84 307.91
  Q 270.81 317.89 261.06 328.14
  C 260.61 328.62 260.15 328.69 259.54 328.80
  L 258.29 327.96
  L 268.54 317.39
  C 273.77 312.61 278.61 307.69 283.56 302.63
  Q 284.30 301.88 284.85 302.05
  Q 285.44 302.23 286.21 302.97
  Z"
/>
<path fill="#0058b9" d="
  M 291.98 302.81
  Q 291.94 303.95 292.77 304.73
  Q 293.11 305.04 293.82 304.58
  L 292.32 306.26
  Q 291.96 306.66 292.27 307.09
  Q 292.98 308.09 292.72 309.16
  Q 292.61 309.63 292.12 309.63
  Q 290.39 309.61 289.86 310.89
  Q 288.87 313.23 287.24 313.86
  Q 286.28 314.23 284.52 316.32
  C 282.56 318.66 280.07 320.22 277.88 322.30
  A 0.88 0.86 -17.7 0 0 277.64 322.75
  Q 277.49 323.63 276.83 324.17
  Q 276.51 324.43 276.66 324.82
  C 277.28 326.36 276.52 328.06 275.93 329.53
  C 275.46 330.73 274.21 331.57 273.20 332.30
  C 270.73 334.10 268.12 338.64 264.59 335.65
  A 0.55 0.54 54.0 0 0 264.04 335.56
  Q 261.31 336.61 261.43 337.21
  L 260.51 337.30
  L 259.16 337.32
  Q 258.70 337.32 258.47 336.94
  Q 258.21 336.50 258.53 335.88
  Q 258.73 335.50 259.07 335.24
  L 261.15 333.69
  Q 261.54 333.39 261.58 332.89
  Q 261.66 332.04 261.38 331.07
  Q 262.65 330.81 263.09 330.36
  Q 270.05 323.34 276.79 316.12
  Q 281.83 310.72 287.48 305.96
  Q 288.20 305.36 287.50 304.64
  Q 287.33 303.74 287.74 303.21
  Q 288.04 302.81 288.91 302.72
  Q 289.85 302.63 290.75 302.43
  Q 291.71 302.22 291.98 302.81
  Z"
/>
<path fill="#42c0e9" d="
  M 286.21 302.97
  Q 286.96 302.25 287.50 304.64
  Q 288.20 305.36 287.48 305.96
  Q 281.83 310.72 276.79 316.12
  Q 270.05 323.34 263.09 330.36
  Q 262.65 330.81 261.38 331.07
  Q 261.02 330.85 260.18 331.02
  Q 260.53 330.08 258.23 330.26
  Q 259.15 330.12 259.86 329.85
  Q 260.39 329.65 260.23 329.37
  Q 260.09 329.12 259.54 328.80
  C 260.15 328.69 260.61 328.62 261.06 328.14
  Q 270.81 317.89 280.84 307.91
  Q 281.65 307.10 283.67 305.65
  Q 285.45 304.38 286.21 302.97
  Z"
/>
<path fill="#42c0e9" d="
  M 291.98 302.81
  Q 293.97 302.76 293.82 304.58
  Q 293.11 305.04 292.77 304.73
  Q 291.94 303.95 291.98 302.81
  Z"
/>
<path fill="#00459c" d="
  M 261.52 338.39
  Q 262.09 337.84 261.43 337.21
  Q 261.31 336.61 264.04 335.56
  A 0.55 0.54 54.0 0 1 264.59 335.65
  C 268.12 338.64 270.73 334.10 273.20 332.30
  C 274.21 331.57 275.46 330.73 275.93 329.53
  C 276.52 328.06 277.28 326.36 276.66 324.82
  Q 276.51 324.43 276.83 324.17
  Q 277.49 323.63 277.64 322.75
  A 0.88 0.86 -17.7 0 1 277.88 322.30
  C 280.07 320.22 282.56 318.66 284.52 316.32
  Q 286.28 314.23 287.24 313.86
  Q 288.87 313.23 289.86 310.89
  Q 290.39 309.61 292.12 309.63
  Q 292.61 309.63 292.72 309.16
  Q 292.98 308.09 292.27 307.09
  Q 291.96 306.66 292.32 306.26
  L 293.82 304.58
  L 294.10 303.54
  Q 294.27 302.88 294.80 303.31
  Q 297.39 305.43 296.98 308.54
  Q 296.71 310.55 294.59 313.03
  Q 292.44 315.53 290.01 317.82
  C 287.44 320.24 284.37 324.10 281.30 327.02
  Q 275.66 332.38 270.19 337.93
  C 267.36 340.80 265.63 341.40 261.77 340.57
  Q 261.01 340.40 260.64 340.07
  A 0.56 0.56 0.0 0 1 260.77 339.15
  Q 261.40 338.84 261.52 338.39
  Z"
/>
<path fill="#0058b9" d="
  M 219.95 305.33
  Q 220.36 305.99 220.37 306.62
  Q 220.39 307.15 219.89 307.32
  L 217.43 308.20
  A 0.35 0.34 -54.4 0 0 217.54 308.87
  L 219.80 308.89
  A 0.99 0.97 -16.9 0 1 220.61 309.31
  C 221.33 310.35 222.22 312.40 223.81 311.73
  A 0.41 0.41 0.0 0 1 224.36 311.96
  L 224.46 312.24
  Q 224.53 312.50 224.51 312.57
  Q 223.10 312.71 222.19 314.16
  Q 221.89 314.62 222.31 314.99
  Q 222.92 315.51 222.87 316.26
  Q 222.84 316.81 222.29 316.90
  Q 221.18 317.09 220.12 316.75
  Q 219.83 316.66 219.74 316.95
  Q 219.70 317.10 219.64 317.25
  Q 219.45 317.81 220.04 317.88
  L 220.56 317.94
  A 0.87 0.87 0.0 0 1 221.09 319.41
  L 197.94 343.54
  Q 197.57 343.93 197.03 343.92
  L 192.58 343.88
  A 0.81 0.80 -75.7 0 0 191.87 344.31
  Q 191.66 344.72 191.38 344.79
  Q 191.44 344.30 191.00 344.25
  Q 190.44 344.18 190.04 344.44
  Q 188.97 345.04 188.38 344.94
  Q 187.91 344.85 187.77 343.78
  Q 187.65 342.81 187.28 342.31
  Q 185.95 340.54 187.98 341.41
  Q 188.35 341.57 189.48 341.37
  Q 190.01 341.48 190.28 340.53
  C 190.52 339.68 190.09 338.91 189.94 338.05
  Q 191.84 338.21 193.01 336.99
  Q 203.41 326.15 213.91 315.41
  Q 215.37 313.92 217.18 312.94
  Q 217.57 312.73 217.47 312.29
  Q 217.16 310.93 216.47 310.27
  L 213.63 308.35
  Q 213.20 308.06 212.84 308.44
  L 211.01 310.39
  L 210.46 308.14
  Q 211.52 307.32 212.11 306.29
  Q 212.98 306.31 215.12 305.37
  Q 216.98 304.56 219.95 305.33
  Z"
/>
<path fill="#42c0e9" d="
  M 219.95 305.33
  Q 221.13 305.63 221.80 305.56
  C 229.10 308.65 233.39 317.57 227.07 324.10
  Q 216.62 334.89 206.16 345.67
  Q 202.80 349.13 200.57 350.63
  Q 202.72 347.50 205.56 344.98
  C 208.61 342.27 211.53 338.58 214.12 335.98
  Q 220.92 329.16 227.61 322.24
  Q 228.68 321.12 228.32 318.85
  A 1.02 1.01 61.3 0 1 228.56 318.01
  Q 229.43 317.03 228.93 315.88
  Q 228.68 315.32 228.25 315.75
  L 227.75 316.25
  A 0.37 0.36 -22.9 0 1 227.12 316.00
  L 227.12 313.80
  Q 227.12 313.39 226.84 313.09
  Q 225.91 312.14 224.46 312.24
  L 224.36 311.96
  A 0.41 0.41 0.0 0 0 223.81 311.73
  C 222.22 312.40 221.33 310.35 220.61 309.31
  A 0.99 0.97 -16.9 0 0 219.80 308.89
  L 217.54 308.87
  A 0.35 0.34 -54.4 0 1 217.43 308.20
  L 219.89 307.32
  Q 220.39 307.15 220.37 306.62
  Q 220.36 305.99 219.95 305.33
  Z"
/>
<path fill="#e1e3e3" d="
  M 216.47 310.27
  C 215.32 311.89 213.62 311.87 212.16 313.28
  Q 201.58 323.53 191.68 334.44
  Q 190.94 335.26 190.08 335.78
  Q 188.51 335.70 187.59 334.56
  L 211.01 310.39
  L 212.84 308.44
  Q 213.20 308.06 213.63 308.35
  L 216.47 310.27
  Z"
/>
<path fill="#42c0e9" d="
  M 210.46 308.14
  L 211.01 310.39
  L 187.59 334.56
  L 185.03 334.45
  L 210.46 308.14
  Z"
/>
<path fill="#42c0e9" d="
  M 129.23 308.75
  A 0.45 0.44 -2.0 0 1 129.75 309.23
  Q 129.64 310.17 128.78 310.60
  A 0.50 0.50 0.0 0 1 128.12 310.42
  Q 127.71 309.77 128.06 309.29
  Q 128.34 308.90 129.23 308.75
  Z"
/>
<path fill="#44eafc" d="
  M 216.47 310.27
  Q 217.16 310.93 217.47 312.29
  Q 217.57 312.73 217.18 312.94
  Q 215.37 313.92 213.91 315.41
  Q 203.41 326.15 193.01 336.99
  Q 191.84 338.21 189.94 338.05
  L 188.96 337.40
  Q 190.94 337.03 190.08 335.78
  Q 190.94 335.26 191.68 334.44
  Q 201.58 323.53 212.16 313.28
  C 213.62 311.87 215.32 311.89 216.47 310.27
  Z"
/>
<path fill="#309ac7" d="
  M 224.46 312.24
  Q 225.91 312.14 226.84 313.09
  Q 227.12 313.39 227.12 313.80
  L 227.12 316.00
  A 0.37 0.36 -22.9 0 0 227.75 316.25
  L 228.25 315.75
  Q 228.68 315.32 228.93 315.88
  Q 229.43 317.03 228.56 318.01
  A 1.02 1.01 61.3 0 0 228.32 318.85
  Q 228.68 321.12 227.61 322.24
  Q 220.92 329.16 214.12 335.98
  C 211.53 338.58 208.61 342.27 205.56 344.98
  Q 202.72 347.50 200.57 350.63
  Q 195.94 353.31 190.41 350.33
  C 184.82 347.32 182.13 340.38 185.03 334.45
  L 187.59 334.56
  Q 188.51 335.70 190.08 335.78
  Q 190.94 337.03 188.96 337.40
  Q 188.16 336.98 187.39 336.88
  Q 186.88 336.82 186.72 337.30
  Q 185.75 340.24 189.48 341.37
  Q 188.35 341.57 187.98 341.41
  Q 185.95 340.54 187.28 342.31
  Q 187.65 342.81 187.77 343.78
  Q 187.91 344.85 188.38 344.94
  Q 188.97 345.04 190.04 344.44
  Q 187.95 346.46 190.54 346.21
  Q 190.07 347.24 190.78 347.80
  Q 191.19 348.11 192.08 348.12
  Q 194.35 348.13 196.70 348.13
  Q 197.18 348.13 197.47 347.75
  C 199.76 344.74 203.33 341.61 205.14 339.73
  Q 214.08 330.38 223.21 321.21
  Q 225.99 318.42 225.01 313.20
  Q 224.96 312.96 224.83 312.84
  Q 224.71 312.72 224.51 312.57
  Q 224.53 312.50 224.46 312.24
  Z"
/>
<path fill="#00459c" d="
  M 224.51 312.57
  Q 224.71 312.72 224.83 312.84
  Q 224.96 312.96 225.01 313.20
  Q 225.99 318.42 223.21 321.21
  Q 214.08 330.38 205.14 339.73
  C 203.33 341.61 199.76 344.74 197.47 347.75
  Q 197.18 348.13 196.70 348.13
  Q 194.35 348.13 192.08 348.12
  Q 191.19 348.11 190.78 347.80
  Q 190.07 347.24 190.54 346.21
  Q 191.11 345.62 191.38 344.79
  Q 191.66 344.72 191.87 344.31
  A 0.81 0.80 -75.7 0 1 192.58 343.88
  L 197.03 343.92
  Q 197.57 343.93 197.94 343.54
  L 221.09 319.41
  A 0.87 0.87 0.0 0 0 220.56 317.94
  L 220.04 317.88
  Q 219.45 317.81 219.64 317.25
  Q 219.70 317.10 219.74 316.95
  Q 219.83 316.66 220.12 316.75
  Q 221.18 317.09 222.29 316.90
  Q 222.84 316.81 222.87 316.26
  Q 222.92 315.51 222.31 314.99
  Q 221.89 314.62 222.19 314.16
  Q 223.10 312.71 224.51 312.57
  Z"
/>
<path fill="#e1e3e3" d="
  M 258.23 330.26
  Q 260.53 330.08 260.18 331.02
  L 259.76 333.20
  A 0.63 0.63 0.0 0 1 259.07 333.70
  Q 258.40 333.63 257.97 333.25
  Q 257.61 332.94 257.63 332.36
  Q 257.68 331.26 258.23 330.26
  Z"
/>
<path fill="#e1e3e3" d="
  M 188.96 337.40
  L 189.94 338.05
  C 190.09 338.91 190.52 339.68 190.28 340.53
  Q 190.01 341.48 189.48 341.37
  Q 185.75 340.24 186.72 337.30
  Q 186.88 336.82 187.39 336.88
  Q 188.16 336.98 188.96 337.40
  Z"
/>
<path fill="#42c0e9" d="
  M 260.51 337.30
  L 261.43 337.21
  Q 262.09 337.84 261.52 338.39
  Q 260.49 339.00 259.80 338.81
  Q 259.16 338.63 259.49 338.05
  Q 259.76 337.58 260.51 337.30
  Z"
/>
<path fill="#42c0e9" d="
  M 191.38 344.79
  Q 191.11 345.62 190.54 346.21
  Q 187.95 346.46 190.04 344.44
  Q 190.44 344.18 191.00 344.25
  Q 191.44 344.30 191.38 344.79
  Z"
/>
</svg>
