<svg width="25" height="24" viewBox="0 0 25 24" fill="none" xmlns="http://www.w3.org/2000/svg">
<g id="account">
<g id="Vector">
<mask id="path-1-inside-1_0_532" fill="white">
<path d="M12.5 4C13.5609 4 14.5783 4.42143 15.3284 5.17157C16.0786 5.92172 16.5 6.93913 16.5 8C16.5 9.06087 16.0786 10.0783 15.3284 10.8284C14.5783 11.5786 13.5609 12 12.5 12C11.4391 12 10.4217 11.5786 9.67157 10.8284C8.92143 10.0783 8.5 9.06087 8.5 8C8.5 6.93913 8.92143 5.92172 9.67157 5.17157C10.4217 4.42143 11.4391 4 12.5 4ZM12.5 14C16.92 14 20.5 15.79 20.5 18V20H4.5V18C4.5 15.79 8.08 14 12.5 14Z"/>
</mask>
<path d="M16.5 8H17.5H16.5ZM12.5 12V13V12ZM8.5 8H7.5H8.5ZM20.5 20V21H21.5V20H20.5ZM4.5 20H3.5V21H4.5V20ZM12.5 5C13.2956 5 14.0587 5.31607 14.6213 5.87868L16.0355 4.46447C15.0979 3.52678 13.8261 3 12.5 3V5ZM14.6213 5.87868C15.1839 6.44129 15.5 7.20435 15.5 8H17.5C17.5 6.67392 16.9732 5.40215 16.0355 4.46447L14.6213 5.87868ZM15.5 8C15.5 8.79565 15.1839 9.55871 14.6213 10.1213L16.0355 11.5355C16.9732 10.5979 17.5 9.32608 17.5 8H15.5ZM14.6213 10.1213C14.0587 10.6839 13.2956 11 12.5 11V13C13.8261 13 15.0979 12.4732 16.0355 11.5355L14.6213 10.1213ZM12.5 11C11.7044 11 10.9413 10.6839 10.3787 10.1213L8.96447 11.5355C9.90215 12.4732 11.1739 13 12.5 13V11ZM10.3787 10.1213C9.81607 9.55871 9.5 8.79565 9.5 8H7.5C7.5 9.32608 8.02678 10.5979 8.96447 11.5355L10.3787 10.1213ZM9.5 8C9.5 7.20435 9.81607 6.44129 10.3787 5.87868L8.96447 4.46447C8.02678 5.40215 7.5 6.67392 7.5 8H9.5ZM10.3787 5.87868C10.9413 5.31607 11.7044 5 12.5 5V3C11.1739 3 9.90215 3.52678 8.96447 4.46447L10.3787 5.87868ZM12.5 15C14.5885 15 16.429 15.425 17.7103 16.0657C19.0511 16.7361 19.5 17.4776 19.5 18H21.5C21.5 16.3124 20.1589 15.0539 18.6047 14.2768C16.991 13.47 14.8315 13 12.5 13V15ZM19.5 18V20H21.5V18H19.5ZM20.5 19H4.5V21H20.5V19ZM5.5 20V18H3.5V20H5.5ZM5.5 18C5.5 17.4776 5.94887 16.7361 7.28971 16.0657C8.571 15.425 10.4115 15 12.5 15V13C10.1685 13 8.009 13.47 6.39529 14.2768C4.84113 15.0539 3.5 16.3124 3.5 18H5.5Z" fill="#DEE1E3" mask="url(#path-1-inside-1_0_532)"/>
</g>
</g>
</svg>
