<svg width="20" height="20" viewBox="0 0 20 20" fill="none" xmlns="http://www.w3.org/2000/svg">
<g id="boot 1" clip-path="url(#clip0_138_437)">
<g id="Group">
<path id="Vector" d="M6.53543 9.00346C6.668 9.00365 6.79518 8.95093 6.8889 8.85721C6.98262 8.76349 7.03534 8.63626 7.03515 8.50374C7.03515 8.22773 7.25905 8.00383 7.53506 8.00383C7.81111 8.00383 8.03497 8.22769 8.03497 8.50374C8.03497 8.7798 8.25868 9.00346 8.53469 9.00346C8.81093 9.00346 9.0346 8.77975 9.0346 8.50374C9.0346 7.67543 8.36318 7.0042 7.53506 7.0042C6.70698 7.0042 6.03552 7.67543 6.03552 8.50374C6.03549 8.56939 6.04841 8.6344 6.07353 8.69505C6.09864 8.7557 6.13547 8.81081 6.1819 8.85722C6.22832 8.90363 6.28345 8.94044 6.34411 8.96553C6.40477 8.99062 6.46978 9.00351 6.53543 9.00346ZM13.3097 12.3053C11.443 13.2385 8.62602 13.2385 6.75895 12.3053C6.512 12.1817 6.21181 12.2819 6.08824 12.5288C5.9649 12.7757 6.06481 13.0761 6.31176 13.1995C7.47506 13.7482 8.74811 14.0247 10.0342 14.0078C11.3204 14.0246 12.5934 13.7482 13.7567 13.1995C14.0037 13.0761 14.1038 12.7757 13.9804 12.5288C13.8569 12.2818 13.5566 12.1817 13.3097 12.3053V12.3053Z" fill="white"/>
<path id="Vector_2" d="M18.5317 8.00379H18.0318V6.50425C18.0306 5.12467 16.9123 4.00639 15.5326 4.00513H14.0331V2.91323C14.7216 2.66998 15.1347 1.96575 15.0112 1.24602C14.8876 0.526104 14.2635 0 13.5332 0C12.8028 0 12.1788 0.526104 12.0552 1.24602C11.9317 1.9658 12.3448 2.66998 13.0332 2.91323V4.00508H7.03509V2.91323C7.72375 2.66998 8.13669 1.96575 8.01331 1.24602C7.88987 0.526104 7.26578 0 6.53542 0C5.80505 0 5.18086 0.526104 5.05748 1.24602C4.93396 1.9658 5.34689 2.66998 6.03551 2.91323V4.00508H4.53597C3.15635 4.00658 2.0383 5.12463 2.0368 6.50429V8.00383H1.53689C0.709147 8.00477 0.0382907 8.67563 0.0373535 9.50337V11.5028C0.0382907 12.3306 0.709147 13.0014 1.53689 13.0024H2.0368V15.0016C2.0383 16.3814 3.15635 17.4995 4.53597 17.501H7.03514V19.5002C7.03521 19.5895 7.05915 19.677 7.10446 19.7539C7.14978 19.8308 7.21483 19.8941 7.29287 19.9373C7.37088 19.9806 7.45905 20.0021 7.54821 19.9998C7.63737 19.9974 7.72427 19.9713 7.7999 19.924L11.6773 17.501H15.5326C16.9123 17.4997 18.0306 16.3815 18.0318 15.0016V13.0024H18.5317C19.3595 13.0014 20.0303 12.3306 20.0313 11.5028V9.50332C20.0303 8.67558 19.3595 8.00472 18.5317 8.00379ZM13.5332 1.0061C13.8093 1.0061 14.0331 1.22976 14.0331 1.50582C14.0331 1.78201 13.8093 2.00573 13.5332 2.00573C13.2572 2.00573 13.0333 1.78201 13.0333 1.50582C13.0339 1.23014 13.2574 1.00661 13.5332 1.0061ZM6.53542 1.0061C6.81147 1.0061 7.03514 1.22976 7.03514 1.50582C7.03514 1.78201 6.81147 2.00573 6.53542 2.00573C6.25936 2.00573 6.03551 1.78201 6.03551 1.50582C6.03588 1.22995 6.25941 1.00647 6.53542 1.0061ZM1.53689 12.0025C1.26107 12.0024 1.03736 11.7786 1.03698 11.5028V9.50332C1.03736 9.22746 1.26107 9.00379 1.53689 9.00342H2.0368V12.0025L1.53689 12.0025ZM17.0322 15.0016C17.0312 15.8295 16.3604 16.5004 15.5326 16.5012H11.5338C11.4402 16.5012 11.3485 16.5275 11.2693 16.5773L8.03495 18.5982V17.001C8.03492 16.8684 7.98224 16.7413 7.88849 16.6476C7.79475 16.5538 7.66762 16.5011 7.53505 16.5011H4.53597C3.70822 16.5004 3.03737 15.8295 3.03643 15.0016V6.50425C3.03737 5.6765 3.70822 5.00565 4.53597 5.00471H15.5326C16.3604 5.00565 17.0312 5.6765 17.0322 6.50425V15.0016ZM19.0314 11.5028C19.0311 11.7786 18.8076 12.0022 18.5317 12.0025H18.0318V9.00346H18.5317C18.8076 9.00403 19.0311 9.2275 19.0314 9.50337V11.5028Z" fill="white"/>
<path id="Vector_3" d="M12.5336 7.0042C11.7058 7.00514 11.035 7.676 11.034 8.50374C11.034 8.77975 11.2577 9.00346 11.5337 9.00346C11.81 9.00346 12.0337 8.77975 12.0337 8.50374C12.0337 8.22773 12.2576 8.00383 12.5336 8.00383C12.8096 8.00383 13.0333 8.22769 13.0333 8.50374C13.0333 8.7798 13.2572 9.00346 13.5332 9.00346C13.8093 9.00346 14.0331 8.77975 14.0331 8.50374C14.0322 7.676 13.3613 7.00514 12.5336 7.0042Z" fill="white"/>
</g>
</g>
<defs>
<clipPath id="clip0_138_437">
<rect width="20" height="20" fill="white"/>
</clipPath>
</defs>
</svg>
